<?xml version="1.0"?>
<svg version="1.1" xmlns="http://www.w3.org/2000/svg" width="200" height="50" style="border: none">
<path fill="#ffc533" d="M15.8935546875,19.931640625q0-0.6884765625,0.16845703125-1.00341796875t0.4833984375-0.439453125t0.76171875-0.09521484375t1.04736328125,0.029296875q1.5234375,0,3.076171875,0.46875t2.7978515625,1.36962890625t2.0068359375,2.21923828125t0.76171875,3.0322265625q0,1.142578125-0.32958984375,2.16064453125t-0.93017578125,1.904296875t-1.40625,1.61865234375t-1.7724609375,1.2744140625q0.3955078125,0.3955078125,1.025390625,1.39892578125t1.2451171875,2.138671875t1.09130859375,2.20458984375t0.56396484375,1.611328125l-0.17578125,0.263671875q-0.3955078125,0.234375-0.9521484375,0.2490234375q-0.263671875,0-0.6884765625-0.06591796875t-0.5419921875-0.38818359375q-0.6005859375-1.6845703125-1.31103515625-3.4716796875t-1.75048828125-3.22265625l0-0.029296875q-0.3662109375,0.146484375-0.72509765625,0.28564453125t-0.72509765625,0.25634765625q0.1171875,1.6259765625,0.24169921875,3.20068359375t0.12451171875,3.18603515625q0,0.205078125-0.19775390625,0.32958984375t-0.44677734375,0.19775390625t-0.50537109375,0.1025390625t-0.41748046875,0.029296875q-0.146484375,0-0.41748046875-0.029296875t-0.52001953125-0.1025390625t-0.43212890625-0.21240234375t-0.18310546875-0.37353515625q0-1.6259765625-0.0732421875-3.24462890625t-0.1611328125-3.22998046875q-0.4541015625-0.29296875-0.4541015625-0.76171875q0-0.3662109375,0.3515625-0.498046875q-0.17578125-3.0908203125-0.40283203125-6.1669921875t-0.22705078125-6.1962890625z M18.544921875,19.4775390625q0.205078125,3.1787109375,0.46142578125,6.2841796875t0.49072265625,6.2841796875q1.025390625-0.29296875,1.91162109375-1.01806640625t1.53076171875-1.63330078125t1.00341796875-1.9775390625t0.35888671875-2.1240234375q0-1.171875-0.46875-2.24853515625t-1.2451171875-1.88232421875q-0.791015625-0.8056640625-1.81640625-1.259765625q-0.908203125-0.3955078125-1.904296875-0.3955078125l-0.263671875,0z M29.995166015625,34.3603515625q0-1.142578125,0.24169921875-2.07275390625t0.76904296875-1.57470703125t1.38427734375-1.00341796875t2.08740234375-0.35888671875q0.6884765625,0,1.40625,0.18310546875t1.23046875,0.68115234375q0-0.29296875,0.05859375-1.20849609375t0.146484375-2.13134765625t0.18310546875-2.548828125t0.16845703125-2.4755859375t0.1318359375-1.9189453125t0.087890625-0.87890625q0.146484375-0.4248046875,0.5419921875-0.50537109375t0.7470703125-0.08056640625q0.9228515625,0,1.13525390625,0.29296875t0.21240234375,1.171875q0,3.2080078125-0.28564453125,6.38671875t-0.28564453125,6.38671875q0,2.0654296875,0.08056640625,4.15283203125t0.57861328125,4.10888671875l0.1611328125,0.146484375l0.087890625,0.263671875l-0.2197265625,0.3369140625q-0.556640625,0.3515625-1.2890625,0.3515625l-0.05859375,0q-0.7470703125,0-1.376953125-0.3515625q-0.234375-0.146484375-0.38818359375-0.87158203125t-0.24169921875-1.5966796875t-0.1318359375-1.67724609375t-0.0732421875-1.142578125q-0.5126953125,1.171875-1.39892578125,2.01416015625t-2.23388671875,0.84228515625q-1.0546875,0-1.728515625-0.4541015625t-1.04736328125-1.1572265625t-0.52734375-1.57470703125t-0.15380859375-1.73583984375z M31.767626953125,34.4482421875q0,0.3369140625,0.08056640625,0.99609375t0.25634765625,1.318359375t0.49072265625,1.171875t0.82763671875,0.5126953125q0.6884765625-0.3369140625,1.2451171875-1.12060546875t0.95947265625-1.728515625t0.6298828125-1.8896484375t0.22705078125-1.63330078125q0-0.8642578125-0.6298828125-1.435546875t-1.5087890625-0.5712890625q-0.263671875,0-0.53466796875,0.1025390625t-0.50537109375,0.234375q-0.5419921875,0.5126953125-0.84228515625,0.93017578125t-0.4541015625,0.8642578125t-0.19775390625,0.98876953125t-0.0439453125,1.259765625z M43.86240234375,30.0390625q0-0.29296875,0.380859375-0.37353515625t0.5859375-0.08056640625q1.2890625,0,2.5341796875-0.2197265625t2.5048828125-0.2197265625q0.1171875,0,0.38818359375,0.0146484375t0.5126953125,0.05859375t0.43212890625,0.146484375t0.1904296875,0.3076171875q0,0.3662109375-0.17578125,1.0546875t-0.47607421875,1.54541015625t-0.6591796875,1.81640625t-0.7177734375,1.8310546875t-0.673828125,1.57470703125t-0.50537109375,1.0986328125q0.4833984375,0.087890625,1.1865234375,0.146484375t1.3330078125,0.1171875t1.0546875,0.19775390625t0.3955078125,0.34423828125q-0.05859375,0.3369140625-0.6005859375,0.52734375q-0.52734375,0.1904296875-1.318359375,0.263671875q-0.4833984375,0.0439453125-1.025390625,0.0439453125q-0.322265625,0-0.64453125-0.0146484375q-0.87890625-0.0439453125-1.64794921875-0.146484375t-1.28173828125-0.28564453125t-0.5126953125-0.38818359375q0-0.087890625,0.25634765625-0.7177734375t0.6298828125-1.53076171875t0.82763671875-1.962890625t0.87158203125-2.04345703125t0.732421875-1.7431640625t0.43212890625-1.0546875q-0.8642578125,0.05859375-1.75048828125,0.146484375t-1.75048828125,0.087890625q-0.1171875,0-0.37353515625-0.0146484375t-0.498046875-0.0732421875t-0.439453125-0.16845703125t-0.19775390625-0.28564453125z M60.8009765625,39.6630859375q0-0.087890625,0.05859375-0.62255859375t0.15380859375-1.3037109375t0.21240234375-1.6552734375t0.205078125-1.67724609375t0.15380859375-1.3916015625t0.06591796875-0.8056640625q-0.1171875-0.05859375-0.28564453125-0.16845703125t-0.16845703125-0.25634765625q0-0.205078125,0.19775390625-0.32958984375t0.34423828125-0.18310546875q0.05859375-0.7470703125,0.146484375-2.080078125t0.27099609375-2.87841796875t0.5126953125-3.134765625t0.87158203125-2.8857421875t1.3037109375-2.11669921875t1.875-0.8203125t1.845703125,0.703125t1.19384765625,1.8310546875t0.703125,2.5048828125t0.3662109375,2.7392578125t0.15380859375,2.548828125t0.05859375,1.904296875q0.029296875,0.4541015625,0.2197265625,0.60791015625t0.41748046875,0.21240234375t0.41015625,0.1318359375t0.18310546875,0.3662109375q0,0.3369140625-0.41015625,0.46875t-0.64453125,0.1611328125q0.146484375,1.8310546875,0.40283203125,3.603515625t0.68115234375,3.57421875q0.05859375,0.3369140625,0.1611328125,0.68115234375t0.1025390625,0.66650390625q0,0.234375-0.1611328125,0.38818359375t-0.41748046875,0.24169921875t-0.5126953125,0.1171875t-0.43212890625,0.029296875q-0.6591796875,0-1.11328125-0.2490234375t-0.6005859375-0.9521484375q-0.3955078125-1.8896484375-0.7763671875-3.9697265625q-0.322265625-1.8017578125-0.322265625-3.5009765625q0-0.263671875,0.0146484375-0.52734375q-1.23046875,0-2.4755859375,0.05859375t-2.3876953125,0.439453125q-0.029296875,0.3955078125-0.146484375,1.494140625t-0.263671875,2.3583984375t-0.30029296875,2.40966796875t-0.18310546875,1.63330078125q-0.029296875,0.205078125-0.30029296875,0.38818359375t-0.5859375,0.19775390625t-0.556640625-0.19775390625t-0.24169921875-0.75439453125z M63.540234375,30.7861328125q1.142578125-0.263671875,2.29248046875-0.3076171875t2.32177734375-0.1025390625q-0.05859375-0.3662109375-0.029296875-0.75439453125t0.029296875-0.78369140625q0-0.8642578125-0.0439453125-2.0068359375t-0.1318359375-2.314453125t-0.22705078125-2.30712890625t-0.31494140625-2.021484375t-0.37353515625-1.41357421875t-0.43212890625-0.52734375q-0.4541015625,0.029296875-0.85693359375,0.78369140625t-0.732421875,1.9189453125t-0.6005859375,2.607421875t-0.4541015625,2.81982421875t-0.30029296875,2.5634765625t-0.146484375,1.845703125z M75.561767578125,30.0390625q0-0.29296875,0.380859375-0.37353515625t0.5859375-0.08056640625q1.2890625,0,2.5341796875-0.2197265625t2.5048828125-0.2197265625q0.1171875,0,0.38818359375,0.0146484375t0.5126953125,0.05859375t0.43212890625,0.146484375t0.1904296875,0.3076171875q0,0.3662109375-0.17578125,1.0546875t-0.47607421875,1.54541015625t-0.6591796875,1.81640625t-0.7177734375,1.8310546875t-0.673828125,1.57470703125t-0.50537109375,1.0986328125q0.4833984375,0.087890625,1.1865234375,0.146484375t1.3330078125,0.1171875t1.0546875,0.19775390625t0.3955078125,0.34423828125q-0.05859375,0.3369140625-0.6005859375,0.52734375q-0.52734375,0.1904296875-1.318359375,0.263671875q-0.4833984375,0.0439453125-1.025390625,0.0439453125q-0.322265625,0-0.64453125-0.0146484375q-0.87890625-0.0439453125-1.64794921875-0.146484375t-1.28173828125-0.28564453125t-0.5126953125-0.38818359375q0-0.087890625,0.25634765625-0.7177734375t0.6298828125-1.53076171875t0.82763671875-1.962890625t0.87158203125-2.04345703125t0.732421875-1.7431640625t0.43212890625-1.0546875q-0.8642578125,0.05859375-1.75048828125,0.146484375t-1.75048828125,0.087890625q-0.1171875,0-0.37353515625-0.0146484375t-0.498046875-0.0732421875t-0.439453125-0.16845703125t-0.19775390625-0.28564453125z M86.88017578125,35.13671875q0-1.025390625,0.22705078125-2.4169921875t0.76904296875-2.63671875t1.42822265625-2.11669921875t2.23388671875-0.87158203125q1.259765625,0,1.8896484375,0.72509765625t0.6298828125,1.95556640625q0,0.8056640625-0.30029296875,1.76513671875t-0.85693359375,1.81640625t-1.318359375,1.42822265625t-1.69921875,0.5712890625l-0.380859375-0.029296875q0,0.3955078125,0.1171875,1.06201171875t0.34423828125,1.32568359375t0.5859375,1.1572265625t0.87158203125,0.498046875q0.7470703125,0,1.435546875-0.6005859375t1.3037109375-1.3330078125t1.142578125-1.3330078125t0.966796875-0.6005859375q0.234375,0,0.4833984375,0.0732421875t0.2783203125,0.41015625q0,0.205078125-0.10986328125,0.3369140625t-0.19775390625,0.29296875q-0.4541015625,0.7763671875-0.98876953125,1.4794921875t-1.20849609375,1.2744140625t-1.47216796875,0.90087890625t-1.76513671875,0.32958984375q-1.259765625,0-2.0947265625-0.44677734375t-1.34765625-1.201171875t-0.73974609375-1.7431640625t-0.22705078125-2.07275390625z M89.50224609375,34.0234375l0.41015625,0.3662109375q0.29296875,0.263671875,0.5859375,0.1171875t0.52734375-0.53466796875t0.43212890625-0.95947265625t0.3515625-1.171875t0.22705078125-1.171875t0.0732421875-0.9521484375l0-0.498046875t-0.0439453125-0.52734375t-0.15380859375-0.41748046875t-0.34423828125-0.21240234375q-0.0732421875-0.0146484375-0.1318359375-0.0146484375q-0.498046875,0-0.849609375,0.6298828125q-0.380859375,0.703125-0.615234375,1.70654296875t-0.3369140625,2.05810546875t-0.1318359375,1.58203125z M99.121435546875,30.4345703125q0-0.6005859375,0.21240234375-1.0107421875t0.90087890625-0.41015625q0.263671875,0,0.6591796875,0.08056640625t0.4541015625,0.40283203125q0.146484375,0.8642578125,0.1611328125,1.875t0.1025390625,1.904296875q0.3369140625-0.6591796875,0.8642578125-1.4208984375t1.201171875-1.40625t1.46484375-1.0693359375t1.611328125-0.4248046875q0.05859375,0,0.2197265625,0.0439453125t0.30029296875,0.12451171875t0.16845703125,0.18310546875t-0.1611328125,0.1904296875q-0.05859375,0.17578125-0.2490234375,0.21240234375t-0.3369140625,0.03662109375q-0.087890625,0-0.2783203125-0.0732421875q-1.083984375,0.5712890625-1.845703125,1.552734375t-1.2451171875,2.17529296875t-0.703125,2.51953125t-0.2197265625,2.58544921875q0,0.6298828125-0.28564453125,0.76171875t-0.91552734375,0.1318359375q-0.3369140625,0-0.71044921875-0.0732421875t-0.52001953125-0.46875q-0.263671875-0.8349609375-0.43212890625-1.9189453125t-0.25634765625-2.23388671875t-0.12451171875-2.26318359375t-0.03662109375-2.0068359375z M109.531640625,38.9453125q0.6298828125-2.8564453125,1.81640625-5.4638671875t2.4462890625-5.21484375q-0.6884765625-2.314453125-1.435546875-4.73876953125t-1.8017578125-4.59228515625q-0.1171875-0.087890625-0.24169921875-0.2197265625t-0.12451171875-0.29296875q0-0.205078125,0.16845703125-0.3369140625t0.3955078125-0.21240234375t0.46875-0.10986328125t0.38818359375-0.029296875q1.23046875,0,1.7724609375,1.142578125q0.6005859375,1.2890625,1.12060546875,2.64404296875t1.00341796875,2.70263671875q0.17578125-0.3955078125,0.41748046875-1.0693359375t0.5126953125-1.4208984375t0.6005859375-1.51611328125t0.7177734375-1.39892578125t0.85693359375-1.01806640625t1.0107421875-0.38818359375t0.703125,0.1025390625t0.1318359375,0.28564453125t-0.19775390625,0.40283203125t-0.25634765625,0.46875q-0.263671875,0.6298828125-0.63720703125,1.70654296875t-0.82763671875,2.32177734375t-0.94482421875,2.5341796875t-1.00341796875,2.314453125q1.0546875,3.45703125,1.7431640625,6.97998046875t1.58203125,7.02392578125q0.087890625,0.3369140625,0.27099609375,0.71044921875t0.18310546875,0.71044921875q0,0.205078125-0.19775390625,0.322265625t-0.4541015625,0.19775390625t-0.50537109375,0.10986328125t-0.41015625,0.029296875q-0.7763671875,0-1.20849609375-0.34423828125t-0.6884765625-0.87158203125t-0.3662109375-1.1572265625t-0.19775390625-1.23046875q-0.3662109375-2.0654296875-0.76904296875-4.12353515625t-0.90087890625-4.12353515625q-0.4541015625,1.025390625-0.76904296875,1.904296875t-0.5859375,1.72119140625t-0.52734375,1.69921875t-0.57861328125,1.83837890625q-0.146484375,0.4248046875-0.556640625,0.5126953125t-0.76171875,0.087890625q-0.3662109375,0-0.78369140625-0.087890625t-0.57861328125-0.5126953125z"/>
<path fill="" d=""/>
</svg>
