<?xml version="1.0" encoding="UTF-8" standalone="no"?>
<svg
   xmlns:dc="http://purl.org/dc/elements/1.1/"
   xmlns:cc="http://creativecommons.org/ns#"
   xmlns:rdf="http://www.w3.org/1999/02/22-rdf-syntax-ns#"
   xmlns:svg="http://www.w3.org/2000/svg"
   xmlns="http://www.w3.org/2000/svg"
   viewBox="0 0 566.93335 566.93335"
   height="566.93335"
   width="566.93335"
   xml:space="preserve"
   id="svg2"
   version="1.1"><metadata
     id="metadata8"><rdf:RDF><cc:Work
         rdf:about=""><dc:format>image/svg+xml</dc:format><dc:type
           rdf:resource="http://purl.org/dc/dcmitype/StillImage" /></cc:Work></rdf:RDF></metadata><defs
     id="defs6"><clipPath
       id="clipPath36"
       clipPathUnits="userSpaceOnUse"><path
         id="path34"
         d="m 1187.35,2426.36 c 0,-165.67 -134.28,-299.98 -299.909,-299.98 -165.664,0 -299.953,134.31 -299.953,299.98 0,165.62 134.289,299.93 299.953,299.93 165.629,0 299.909,-134.31 299.909,-299.93" /></clipPath><clipPath
       id="clipPath134"
       clipPathUnits="userSpaceOnUse"><path
         id="path132"
         d="m 3419.56,2059.79 c 0,-137.01 -111.05,-248.08 -248.07,-248.08 -137.05,0 -248.08,111.07 -248.08,248.08 0,136.98 111.03,248.07 248.08,248.07 137.02,0 248.07,-111.09 248.07,-248.07" /></clipPath><clipPath
       id="clipPath232"
       clipPathUnits="userSpaceOnUse"><path
         id="path230"
         d="m 2812,3242.76 c 0,-113.26 -91.79,-205.05 -205.04,-205.05 -113.21,0 -205.02,91.79 -205.02,205.05 0,113.22 91.81,205.03 205.02,205.03 113.25,0 205.04,-91.81 205.04,-205.03" /></clipPath></defs><g
     transform="matrix(1.3333333,0,0,-1.3333333,0,566.93333)"
     id="g10"><g
       transform="scale(0.1)"
       id="g12"><path
         id="path14"
         style="fill:#f4f4f4;fill-opacity:1;fill-rule:nonzero;stroke:none"
         d="M 0,0 H 4251.97 V 4251.97 H 0 Z" /><path
         id="path16"
         style="fill:#bdbcbd;fill-opacity:1;fill-rule:nonzero;stroke:none"
         d="M 1616.74,1664.06 H 646.113 c -77.187,0 -139.765,62.56 -139.765,139.75 v 1102.67 c 0,77.2 62.578,139.77 139.765,139.77 h 970.627 c 77.21,0 139.77,-62.57 139.77,-139.77 V 1803.81 c 0,-77.19 -62.56,-139.75 -139.77,-139.75" /><path
         id="path18"
         style="fill:#ffffff;fill-opacity:1;fill-rule:nonzero;stroke:none"
         d="m 1742.53,1821.36 c 0,-77.18 -62.59,-139.78 -139.78,-139.78 H 632.141 c -77.2,0 -139.786,62.6 -139.786,139.78 v 1102.62 c 0,77.2 62.586,139.8 139.786,139.8 h 970.609 c 77.19,0 139.78,-62.6 139.78,-139.8 V 1821.36" /><path
         id="path20"
         style="fill:#1f4c7f;fill-opacity:1;fill-rule:nonzero;stroke:none"
         d="m 1742.53,2854.11 v 69.87 c 0,77.2 -62.59,139.8 -139.78,139.8 H 632.141 c -77.2,0 -139.786,-62.6 -139.786,-139.8 v -69.87 H 1742.53" /><path
         id="path22"
         style="fill:#ffffff;fill-opacity:1;fill-rule:nonzero;stroke:none"
         d="m 1474.65,2913.09 c 0,-6.29 -5.12,-11.45 -11.43,-11.45 h -76.17 c -6.29,0 -11.41,5.16 -11.41,11.45 v 76.18 c 0,6.29 5.12,11.38 11.41,11.38 h 76.17 c 6.31,0 11.43,-5.09 11.43,-11.38 v -76.18" /><path
         id="path24"
         style="fill:#ffffff;fill-opacity:1;fill-rule:nonzero;stroke:none"
         d="m 1618.3,2913.09 c 0,-6.29 -5.12,-11.45 -11.44,-11.45 h -76.15 c -6.3,0 -11.43,5.16 -11.43,11.45 v 76.18 c 0,6.29 5.13,11.38 11.43,11.38 h 76.15 c 6.32,0 11.44,-5.09 11.44,-11.38 v -76.18" /><path
         id="path26"
         style="fill:#ffffff;fill-opacity:1;fill-rule:nonzero;stroke:none"
         d="m 1309.61,2951.14 c 0,-27.31 -22.13,-49.5 -49.47,-49.5 H 619.52 c -27.352,0 -49.5,22.19 -49.5,49.5 0,27.37 22.148,49.51 49.5,49.51 h 640.62 c 27.34,0 49.47,-22.14 49.47,-49.51" /><path
         id="path28"
         style="fill:#d3d2d2;fill-opacity:1;fill-rule:nonzero;stroke:none"
         d="m 1187.35,2426.35 c 0,-165.66 -134.28,-299.97 -299.909,-299.97 -165.664,0 -299.953,134.31 -299.953,299.97 0,165.63 134.289,299.94 299.953,299.94 165.629,0 299.909,-134.31 299.909,-299.94" /><g
         id="g30"><g
           clip-path="url(#clipPath36)"
           id="g32"><path
             id="path38"
             style="fill:#702120;fill-opacity:1;fill-rule:nonzero;stroke:none"
             d="m 1037.5,2253.97 c 9.46,-44.25 -302.488,-39.44 -302.488,0 48.718,84.11 1.59,140.3 -4.094,251.14 -5.664,110.84 298.512,80.9 304.882,0 6.3,-80.92 -40.82,-192.2 1.7,-251.14" /><path
             id="path40"
             style="fill:#f8a680;fill-opacity:1;fill-rule:nonzero;stroke:none"
             d="m 982.961,2046.8 h 44.779 l -1.16,15.83 c 0,0 -4.87,138.92 -10.2,177.92 -5.36,39.02 -36.107,38.59 -36.107,38.59 l -22.343,-65.38 c 0,0 19.812,-123.47 22.246,-149.9 0.371,-3.78 1.347,-9.72 2.785,-17.06" /><path
             id="path42"
             style="fill:#f8a680;fill-opacity:1;fill-rule:nonzero;stroke:none"
             d="m 773.699,2046.8 c 1.633,8.07 2.739,14.54 3.117,18.57 2.422,26.4 22.254,149.89 22.254,149.89 l -22.34,65.42 c 0,0 -30.746,0.39 -36.105,-38.63 -5.352,-38.99 -10.215,-177.89 -10.215,-177.89 l -1.289,-17.36 h 44.578" /><path
             id="path44"
             style="fill:#ef3643;fill-opacity:1;fill-rule:nonzero;stroke:none"
             d="m 781.895,2100.87 12.05,-54.07 h 169.356 l 17.961,54.07 c 0,0 28.378,21 28.108,40.5 -0.27,19.45 -36.167,72.43 -36.167,72.43 l 12.5,66.77 -53.515,25.25 H 828.164 l -52.336,-24.06 10.832,-67.96 c 0,0 -29.14,-51.33 -29.531,-72.43 -0.41,-21.14 24.766,-40.5 24.766,-40.5" /><path
             id="path46"
             style="fill:#f8a680;fill-opacity:1;fill-rule:nonzero;stroke:none"
             d="m 932.188,2305.82 c 0,0 18.875,-73.93 8.664,-92.84 -11.477,-21.28 -104.485,-19.5 -116.985,0 -12.5,19.48 4.297,92.84 4.297,92.84 l 16.016,0.82 v 78.01 h 71.496 v -74.73 l 16.512,-4.1" /><path
             id="path48"
             style="fill:#d9836d;fill-opacity:1;fill-rule:nonzero;stroke:none"
             d="m 903.691,2317.32 c 4.168,1.18 8.145,2.65 11.985,4.24 v 63.09 H 844.18 v -56.91 c 18.957,-8.92 37.422,-16.64 59.511,-10.42" /><path
             id="path50"
             style="fill:#f8a680;fill-opacity:1;fill-rule:nonzero;stroke:none"
             d="m 1036.31,2427.6 c -9.81,-4.11 -21.15,2.9 -21.15,2.9 0,0 -50.394,-2.61 -50.394,10.51 0,13.19 0,20.55 0,43.96 0,31.34 50.394,28.2 50.394,28.2 0,0 11.36,15.93 26.62,5.06 24.06,-17.17 13.41,-82.69 -5.47,-90.63" /><path
             id="path52"
             style="fill:#f8a680;fill-opacity:1;fill-rule:nonzero;stroke:none"
             d="m 738.613,2427.6 c 9.825,-4.11 21.172,2.9 21.172,2.9 0,0 50.371,-2.61 50.371,10.51 0,13.19 0,20.55 0,43.96 0,31.34 -50.371,28.2 -50.371,28.2 0,0 -11.367,15.93 -26.621,5.06 -24.07,-17.17 -13.437,-82.69 5.449,-90.63" /><path
             id="path54"
             style="fill:#f8a680;fill-opacity:1;fill-rule:nonzero;stroke:none"
             d="m 1016.38,2445.55 c 0,-58.29 -84.446,-122.92 -129.7,-122.92 -49.746,0 -129.637,68.77 -129.637,126.58 0,68.23 0,68.23 0,121.89 0,172.17 259.337,183.58 259.337,0 0,-117 0,-41.85 0,-125.55" /><path
             id="path56"
             style="fill:#702120;fill-opacity:1;fill-rule:nonzero;stroke:none"
             d="m 764.902,2511.38 c -0.879,16.4 26.309,29.56 29.036,89.4 22.566,-12.53 131.941,-76.68 214.462,-89.06 -0.92,-34.69 7.3,-45.96 9.69,-56 0,0 0.19,29.98 0,45.42 -0.2,15.41 19.41,20.88 19.41,20.88 v 53.12 c 0,28.54 -29.22,161.01 -151.465,129.98 -116.484,26.96 -169.238,-95.25 -166.789,-125.34 2.414,-30.08 5.715,-70.84 5.715,-70.84 0,0 26.66,24.78 30.293,-9.36 1.992,-18.36 0.422,-37.77 13.691,-40.82 -1.718,16.45 -2.859,31.69 -4.043,52.62" /><path
             id="path58"
             style="fill:#d9836d;fill-opacity:1;fill-rule:nonzero;stroke:none"
             d="m 884.258,2502.46 v -85.37 l 15.019,11.78 z" /><path
             id="path60"
             style="fill:#702120;fill-opacity:1;fill-rule:nonzero;stroke:none"
             d="m 861.719,2519.24 c 0,0 -22.949,15.42 -37.598,10.55 -14.609,-4.87 -32.871,-20.68 -32.871,-20.68 l -2.031,7.55 c 0,0 13.691,16.56 33.535,18.14 19.902,1.68 38.965,-15.56 38.965,-15.56" /><path
             id="path62"
             style="fill:#d02936;fill-opacity:1;fill-rule:nonzero;stroke:none"
             d="m 849.016,2387.1 c 0,0 12.117,-11.63 19.004,-12.11 6.902,-0.46 32.078,-1.57 40.554,1.3 2.864,0.96 12.949,10.56 12.949,10.56 0,0 -29.035,1.43 -34.257,1.66 -5.235,0.27 -38.25,-1.41 -38.25,-1.41" /><path
             id="path64"
             style="fill:#ef303f;fill-opacity:1;fill-rule:nonzero;stroke:none"
             d="m 829.785,2396.06 c 0,0 17.813,-6.43 24.942,-5.65 7.121,0.82 19.05,10.85 21.914,9.61 2.832,-1.18 9.953,-4.16 9.953,-4.16 0,0 9.285,4.66 12.136,4.16 2.833,-0.46 17.618,-10.3 22.793,-9.61 5.137,0.73 17.188,5.65 17.188,5.65 0,0 -14.902,-9.86 -20.84,-11.64 -10.957,-3.26 -22.715,0.17 -30.527,0.66 -9.383,0.61 -23.008,-6 -33.711,-0.34 -10.684,5.6 -23.848,11.32 -23.848,11.32" /><path
             id="path66"
             style="fill:#702120;fill-opacity:1;fill-rule:nonzero;stroke:none"
             d="m 913.203,2520.67 c 0,0 22.949,15.47 37.559,10.59 14.636,-4.91 32.949,-20.72 32.949,-20.72 l 1.992,7.59 c 0,0 -13.64,16.56 -33.555,18.17 -19.882,1.65 -38.945,-15.63 -38.945,-15.63" /><path
             id="path68"
             style="fill:#281619;fill-opacity:1;fill-rule:nonzero;stroke:none"
             d="m 945.059,2506.4 c 16.738,0 14.171,-12.43 19.511,-15.78 1.485,0.93 10.657,3.99 10.657,3.99 0,0 -8.84,14.83 -30.168,14.83 -21.309,0 -29.278,-14.54 -29.278,-14.54 0,0 3.321,0 4.778,-0.92 5.359,3.37 7.808,12.42 24.5,12.42" /><path
             id="path70"
             style="fill:#ffffff;fill-opacity:1;fill-rule:nonzero;stroke:none"
             d="m 971.191,2494.61 c 0,0 -3.449,-12.61 -24.804,-12.61 -21.321,0 -30.098,12.9 -30.098,12.9 0,0 8.777,12.3 30.098,12.3 21.355,0 24.804,-12.59 24.804,-12.59" /><path
             id="path72"
             style="fill:#281619;fill-opacity:1;fill-rule:nonzero;stroke:none"
             d="m 931.777,2494.86 c 0,-5.02 2.461,-9.48 6.231,-12.18 2.715,-0.43 5.515,-0.68 8.379,-0.68 2.91,0 5.703,0.25 8.398,0.68 3.77,2.7 6.238,7.16 6.238,12.18 0,5.06 -2.468,9.48 -6.238,12.22 -2.695,0.39 -5.488,0.64 -8.398,0.64 -2.864,0 -5.664,-0.25 -8.379,-0.64 -3.77,-2.74 -6.231,-7.16 -6.231,-12.22" /><path
             id="path74"
             style="fill:#1a0d0e;fill-opacity:1;fill-rule:nonzero;stroke:none"
             d="m 952.344,2494.61 c 0,-3.27 -2.676,-5.95 -5.957,-5.95 -3.262,0 -5.938,2.68 -5.938,5.95 0,3.28 2.676,5.96 5.938,5.96 3.281,0 5.957,-2.68 5.957,-5.96" /><path
             id="path76"
             style="fill:#ffffff;fill-opacity:1;fill-rule:nonzero;stroke:none"
             d="m 944.836,2500.24 c 0,-1.46 -1.242,-2.64 -2.707,-2.64 -1.484,0 -2.656,1.18 -2.656,2.64 0,1.51 1.172,2.69 2.656,2.69 1.465,0 2.707,-1.18 2.707,-2.69" /><path
             id="path78"
             style="fill:#ffffff;fill-opacity:1;fill-rule:nonzero;stroke:none"
             d="m 946.523,2494.45 -1.406,-1.41 -1.387,1.41 1.387,1.4 1.406,-1.4" /><path
             id="path80"
             style="fill:#281619;fill-opacity:1;fill-rule:nonzero;stroke:none"
             d="m 829.863,2506.4 c -16.726,0 -14.16,-12.43 -19.472,-15.78 -1.496,0.93 -10.684,3.99 -10.684,3.99 0,0 8.84,14.83 30.156,14.83 21.289,0 29.297,-14.54 29.297,-14.54 0,0 -3.34,0 -4.765,-0.92 -5.379,3.37 -7.793,12.42 -24.532,12.42" /><path
             id="path82"
             style="fill:#ffffff;fill-opacity:1;fill-rule:nonzero;stroke:none"
             d="m 803.77,2494.61 c 0,0 3.437,-12.61 24.765,-12.61 21.309,0 30.117,12.9 30.117,12.9 0,0 -8.808,12.3 -30.117,12.3 -21.328,0 -24.765,-12.59 -24.765,-12.59" /><path
             id="path84"
             style="fill:#281619;fill-opacity:1;fill-rule:nonzero;stroke:none"
             d="m 843.164,2494.86 c 0,-5.02 -2.461,-9.48 -6.23,-12.18 -2.715,-0.43 -5.528,-0.68 -8.399,-0.68 -2.89,0 -5.683,0.25 -8.39,0.68 -3.778,2.7 -6.219,7.16 -6.219,12.18 0,5.06 2.441,9.48 6.219,12.22 2.707,0.39 5.5,0.64 8.39,0.64 2.871,0 5.684,-0.25 8.399,-0.64 3.769,-2.74 6.23,-7.16 6.23,-12.22" /><path
             id="path86"
             style="fill:#1a0d0e;fill-opacity:1;fill-rule:nonzero;stroke:none"
             d="m 822.598,2494.61 c 0,-3.27 2.636,-5.95 5.937,-5.95 3.32,0 5.93,2.68 5.93,5.95 0,3.28 -2.61,5.96 -5.93,5.96 -3.301,0 -5.937,-2.68 -5.937,-5.96" /><path
             id="path88"
             style="fill:#ffffff;fill-opacity:1;fill-rule:nonzero;stroke:none"
             d="m 830.117,2500.24 c 0,-1.46 1.199,-2.64 2.696,-2.64 1.457,0 2.656,1.18 2.656,2.64 0,1.51 -1.199,2.69 -2.656,2.69 -1.497,0 -2.696,-1.18 -2.696,-2.69" /><path
             id="path90"
             style="fill:#ffffff;fill-opacity:1;fill-rule:nonzero;stroke:none"
             d="m 828.418,2494.45 1.406,-1.41 1.406,1.41 -1.406,1.4 -1.406,-1.4" /></g></g><path
         id="path92"
         style="fill:#a7a5a6;fill-opacity:1;fill-rule:nonzero;stroke:none"
         d="m 1639.64,2627.93 h -402.73 v 76.18 h 402.73 v -76.18" /><path
         id="path94"
         style="fill:#d3d2d2;fill-opacity:1;fill-rule:nonzero;stroke:none"
         d="m 1639.64,2535.41 h -402.73 v 38.08 h 402.73 v -38.08" /><path
         id="path96"
         style="fill:#d3d2d2;fill-opacity:1;fill-rule:nonzero;stroke:none"
         d="m 1639.64,2457.43 h -402.73 v 38.08 h 402.73 v -38.08" /><path
         id="path98"
         style="fill:#d3d2d2;fill-opacity:1;fill-rule:nonzero;stroke:none"
         d="m 1639.64,2379.42 h -402.73 v 38.1 h 402.73 v -38.1" /><path
         id="path100"
         style="fill:#d3d2d2;fill-opacity:1;fill-rule:nonzero;stroke:none"
         d="m 1639.64,2301.43 h -402.73 v 38.12 h 402.73 v -38.12" /><path
         id="path102"
         style="fill:#d3d2d2;fill-opacity:1;fill-rule:nonzero;stroke:none"
         d="m 1639.64,2223.45 h -402.73 v 38.06 h 402.73 v -38.06" /><path
         id="path104"
         style="fill:#d3d2d2;fill-opacity:1;fill-rule:nonzero;stroke:none"
         d="m 1639.64,2145.42 h -402.73 v 38.12 h 402.73 v -38.12" /><path
         id="path106"
         style="fill:#d3d2d2;fill-opacity:1;fill-rule:nonzero;stroke:none"
         d="M 1639.64,1985.76 H 641.914 v 38.08 h 997.726 v -38.08" /><path
         id="path108"
         style="fill:#d3d2d2;fill-opacity:1;fill-rule:nonzero;stroke:none"
         d="M 1639.64,1891.44 H 641.914 v 38.07 h 997.726 v -38.07" /><path
         id="path110"
         style="fill:#b6b4b5;fill-opacity:1;fill-rule:nonzero;stroke:none"
         d="m 3728.04,1402.65 h -802.82 c -40.11,0 -75.44,20.46 -96.17,51.5 -19.18,20.62 -31.01,48.2 -31.01,78.6 v 854.19 57.78 c 0,63.86 51.75,115.63 115.62,115.63 h 6.58 c -37.91,-18.97 -63.94,-58.16 -63.94,-103.43 V 1544.9 c 0,-63.84 51.76,-115.58 115.6,-115.58 h 802.8 c 11.26,0 22.15,1.61 32.44,4.62 -20.68,-19.41 -48.5,-31.29 -79.1,-31.29" /><path
         id="path112"
         style="fill:#bdbcbd;fill-opacity:1;fill-rule:nonzero;stroke:none"
         d="m 3807.14,1433.94 c 22.48,21.08 36.52,51.05 36.52,84.29 v 912.02 c 0,30.38 -11.81,57.94 -30.99,78.57 -20.73,31.05 -56.08,51.53 -96.21,51.53 h -796.22 c 15.55,7.78 33.09,12.16 51.66,12.16 h 802.8 c 63.84,0 115.62,-51.75 115.62,-115.59 V 1544.9 c 0,-52.58 -35.12,-96.95 -83.18,-110.96" /><path
         id="path114"
         style="fill:#908e8e;fill-opacity:1;fill-rule:nonzero;stroke:none"
         d="m 3774.7,1429.32 h -802.8 c -63.84,0 -115.6,51.74 -115.6,115.58 v 912.02 c 0,45.27 26.03,84.46 63.94,103.43 h 796.22 c 40.13,0 75.48,-20.48 96.21,-51.53 19.18,-20.63 30.99,-48.19 30.99,-78.57 v -912.02 c 0,-33.24 -14.04,-63.21 -36.52,-84.29 -10.29,-3.01 -21.18,-4.62 -32.44,-4.62" /><path
         id="path116"
         style="fill:#ffffff;fill-opacity:1;fill-rule:nonzero;stroke:none"
         d="m 3878.74,1559.42 c 0,-63.87 -51.76,-115.61 -115.62,-115.61 h -802.78 c -63.87,0 -115.62,51.74 -115.62,115.61 v 911.97 c 0,63.86 51.75,115.63 115.62,115.63 h 802.78 c 63.86,0 115.62,-51.77 115.62,-115.63 v -911.97" /><path
         id="path118"
         style="fill:#1f4c7f;fill-opacity:1;fill-rule:nonzero;stroke:none"
         d="m 3878.74,2413.61 v 57.78 c 0,63.86 -51.76,115.63 -115.62,115.63 h -802.78 c -63.87,0 -115.62,-51.77 -115.62,-115.63 v -57.78 h 1034.02" /><path
         id="path120"
         style="fill:#ffffff;fill-opacity:1;fill-rule:nonzero;stroke:none"
         d="m 3657.18,2462.41 c 0,-5.23 -4.22,-9.48 -9.46,-9.48 h -63 c -5.22,0 -9.44,4.25 -9.44,9.48 v 62.99 c 0,5.19 4.22,9.41 9.44,9.41 h 63 c 5.24,0 9.46,-4.22 9.46,-9.41 v -62.99" /><path
         id="path122"
         style="fill:#ffffff;fill-opacity:1;fill-rule:nonzero;stroke:none"
         d="m 3775.99,2462.41 c 0,-5.23 -4.24,-9.48 -9.46,-9.48 h -62.99 c -5.21,0 -9.43,4.25 -9.43,9.48 v 62.99 c 0,5.19 4.22,9.41 9.43,9.41 h 62.99 c 5.22,0 9.46,-4.22 9.46,-9.41 v -62.99" /><path
         id="path124"
         style="fill:#ffffff;fill-opacity:1;fill-rule:nonzero;stroke:none"
         d="m 3520.69,2493.86 c 0,-22.59 -18.32,-40.93 -40.93,-40.93 h -529.85 c -22.63,0 -40.95,18.34 -40.95,40.93 0,22.65 18.32,40.95 40.95,40.95 h 529.85 c 22.61,0 40.93,-18.3 40.93,-40.95" /><path
         id="path126"
         style="fill:#d3d2d2;fill-opacity:1;fill-rule:nonzero;stroke:none"
         d="m 3419.56,2059.79 c 0,-137.01 -111.05,-248.08 -248.07,-248.08 -137.05,0 -248.08,111.07 -248.08,248.08 0,136.98 111.03,248.07 248.08,248.07 137.02,0 248.07,-111.09 248.07,-248.07" /><g
         id="g128"><g
           clip-path="url(#clipPath134)"
           id="g130"><path
             id="path136"
             style="fill:#45291d;fill-opacity:1;fill-rule:nonzero;stroke:none"
             d="m 3219.56,1831.02 c 8.56,-40.14 -124.02,-11.42 -124.02,24.32 44.24,76.35 -62.8,82.15 -66.08,247.68 -1.99,100.69 275.78,73.65 276.58,0 1.59,-146.61 -125.09,-218.53 -86.48,-272" /><path
             id="path138"
             style="fill:#935c39;fill-opacity:1;fill-rule:nonzero;stroke:none"
             d="m 3258.13,1687.2 h 40.63 l -1.07,14.38 c 0,0 -4.42,126.03 -9.28,161.43 -4.85,35.4 -32.74,35.01 -32.74,35.01 l -20.25,-59.34 c 0,0 17.97,-111.99 20.2,-135.99 0.29,-3.43 1.21,-8.82 2.51,-15.49" /><path
             id="path140"
             style="fill:#935c39;fill-opacity:1;fill-rule:nonzero;stroke:none"
             d="m 3068.29,1687.2 c 1.45,7.32 2.46,13.22 2.79,16.88 2.19,23.96 20.18,135.99 20.18,135.99 l -20.27,59.34 c 0,0 -27.89,0.37 -32.74,-35.03 -4.86,-35.37 -9.28,-161.4 -9.28,-161.4 l -1.17,-15.78 h 40.49" /><path
             id="path142"
             style="fill:#54c5bb;fill-opacity:1;fill-rule:nonzero;stroke:none"
             d="m 3075.69,1736.27 10.92,-49.07 h 153.67 l 16.31,49.07 c 0,0 25.72,19.05 25.51,36.74 -0.25,17.67 -32.83,65.7 -32.83,65.7 l 11.35,60.59 -48.56,22.95 h -94.35 l -47.54,-21.86 9.86,-61.68 c 0,0 -26.45,-46.54 -26.8,-65.7 -0.37,-19.14 22.46,-36.74 22.46,-36.74" /><path
             id="path144"
             style="fill:#935c39;fill-opacity:1;fill-rule:nonzero;stroke:none"
             d="m 3212.06,1922.25 c 0,0 17.15,-67.09 7.83,-84.27 -10.39,-19.3 -94.78,-17.7 -106.11,0 -11.33,17.69 3.93,84.27 3.93,84.27 l 14.51,0.73 v 70.74 h 64.86 v -67.78 l 14.98,-3.69" /><path
             id="path146"
             style="fill:#774a2d;fill-opacity:1;fill-rule:nonzero;stroke:none"
             d="m 3186.22,1932.66 c 3.77,1.07 7.38,2.4 10.86,3.85 v 57.21 h -64.86 v -51.65 c 17.18,-8.05 33.94,-15.04 54,-9.41" /><path
             id="path148"
             style="fill:#935c39;fill-opacity:1;fill-rule:nonzero;stroke:none"
             d="m 3306.51,2032.71 c -8.9,-3.7 -19.18,2.67 -19.18,2.67 0,0 -45.7,-2.37 -45.7,9.53 0,11.91 0,18.65 0,39.86 0,28.42 45.7,25.63 45.7,25.63 0,0 10.32,14.41 24.16,4.55 21.84,-15.57 12.17,-75.05 -4.98,-82.24" /><path
             id="path150"
             style="fill:#935c39;fill-opacity:1;fill-rule:nonzero;stroke:none"
             d="m 3036.44,2032.71 c 8.9,-3.7 19.21,2.67 19.21,2.67 0,0 45.69,-2.37 45.69,9.53 0,11.91 0,18.65 0,39.86 0,28.42 -45.69,25.63 -45.69,25.63 0,0 -10.35,14.41 -24.18,4.55 -21.83,-15.57 -12.18,-75.05 4.97,-82.24" /><path
             id="path152"
             style="fill:#935c39;fill-opacity:1;fill-rule:nonzero;stroke:none"
             d="m 3288.41,2049.04 c 0,-52.92 -76.6,-111.55 -117.64,-111.55 -45.15,0 -117.64,62.38 -117.64,114.83 0,61.92 0,61.92 0,110.57 0,156.3 235.28,166.6 235.28,0 0,-106.13 0,-37.94 0,-113.85" /><path
             id="path154"
             style="fill:#45291d;fill-opacity:1;fill-rule:nonzero;stroke:none"
             d="m 3060.28,2108.72 c -0.82,14.9 83.01,35.4 105.84,100.48 22.15,-56.05 40.24,-88.9 115.1,-100.14 -0.84,-31.46 6.6,-41.69 8.77,-50.82 0,0 0.18,27.2 0,41.18 -0.18,14.01 17.64,18.99 17.64,18.99 v 48.19 c 0,25.85 -26.53,146.07 -137.46,117.94 -105.67,24.45 -151.39,-77.56 -151.31,-113.74 0.04,-27.37 5.17,-64.28 5.17,-64.28 0,0 24.2,22.46 27.5,-8.48 1.8,-16.67 0.37,-34.28 12.43,-37.04 -1.57,14.93 -2.62,28.74 -3.68,47.72" /><path
             id="path156"
             style="fill:#774a2d;fill-opacity:1;fill-rule:nonzero;stroke:none"
             d="m 3168.56,2100.63 v -77.48 l 13.64,10.74 z" /><path
             id="path158"
             style="fill:#45291d;fill-opacity:1;fill-rule:nonzero;stroke:none"
             d="m 3148.13,2115.87 c 0,0 -20.82,13.99 -34.1,9.58 -13.24,-4.41 -29.86,-18.81 -29.86,-18.81 l -1.82,6.92 c 0,0 12.41,14.98 30.41,16.45 18.09,1.47 35.37,-14.14 35.37,-14.14" /><path
             id="path160"
             style="fill:#7f2520;fill-opacity:1;fill-rule:nonzero;stroke:none"
             d="m 3136.59,1995.96 c 0,0 11.02,-10.55 17.25,-10.99 6.27,-0.43 29.12,-1.41 36.81,1.21 2.6,0.84 11.72,9.57 11.72,9.57 0,0 -26.34,1.29 -31.09,1.5 -4.71,0.23 -34.69,-1.29 -34.69,-1.29" /><path
             id="path162"
             style="fill:#7f2520;fill-opacity:1;fill-rule:nonzero;stroke:none"
             d="m 3119.15,2004.11 c 0,0 16.15,-5.83 22.64,-5.12 6.44,0.72 17.28,9.82 19.88,8.72 2.56,-1.09 9.02,-3.82 9.02,-3.82 0,0 8.42,4.26 11,3.82 2.58,-0.46 16,-9.37 20.68,-8.72 4.69,0.65 15.61,5.12 15.61,5.12 0,0 -13.5,-8.94 -18.93,-10.55 -9.92,-2.98 -20.6,0.1 -27.69,0.58 -8.5,0.55 -20.86,-5.42 -30.55,-0.31 -9.73,5.1 -21.66,10.28 -21.66,10.28" /><path
             id="path164"
             style="fill:#45291d;fill-opacity:1;fill-rule:nonzero;stroke:none"
             d="m 3194.81,2117.19 c 0,0 20.84,14 34.11,9.57 13.28,-4.4 29.86,-18.79 29.86,-18.79 l 1.84,6.92 c 0,0 -12.39,14.97 -30.43,16.45 -18.05,1.48 -35.38,-14.15 -35.38,-14.15" /><path
             id="path166"
             style="fill:#281619;fill-opacity:1;fill-rule:nonzero;stroke:none"
             d="m 3223.76,2104.25 c 15.16,0 12.83,-11.31 17.68,-14.33 1.32,0.81 9.66,3.61 9.66,3.61 0,0 -8,13.43 -27.34,13.43 -19.36,0 -26.58,-13.19 -26.58,-13.19 0,0 3.01,0 4.31,-0.83 4.89,3.01 7.09,11.31 22.27,11.31" /><path
             id="path168"
             style="fill:#ffffff;fill-opacity:1;fill-rule:nonzero;stroke:none"
             d="m 3247.43,2093.53 c 0,0 -3.14,-11.41 -22.48,-11.41 -19.35,0 -27.3,11.65 -27.3,11.65 0,0 7.95,11.18 27.3,11.18 19.34,0 22.48,-11.42 22.48,-11.42" /><path
             id="path170"
             style="fill:#281619;fill-opacity:1;fill-rule:nonzero;stroke:none"
             d="m 3211.67,2093.77 c 0,-4.58 2.27,-8.63 5.68,-11.07 2.44,-0.38 4.98,-0.58 7.6,-0.58 2.62,0 5.16,0.2 7.62,0.58 3.42,2.44 5.66,6.49 5.66,11.07 0,4.57 -2.24,8.58 -5.66,11.03 -2.46,0.38 -5,0.61 -7.62,0.61 -2.62,0 -5.16,-0.23 -7.6,-0.61 -3.41,-2.45 -5.68,-6.46 -5.68,-11.03" /><path
             id="path172"
             style="fill:#1a0d0e;fill-opacity:1;fill-rule:nonzero;stroke:none"
             d="m 3230.34,2093.53 c 0,-2.98 -2.4,-5.42 -5.39,-5.42 -2.99,0 -5.39,2.44 -5.39,5.42 0,2.96 2.4,5.38 5.39,5.38 2.99,0 5.39,-2.42 5.39,-5.38" /><path
             id="path174"
             style="fill:#ffffff;fill-opacity:1;fill-rule:nonzero;stroke:none"
             d="m 3223.53,2098.68 c 0,-1.37 -1.1,-2.42 -2.45,-2.42 -1.34,0 -2.42,1.05 -2.42,2.42 0,1.32 1.08,2.39 2.42,2.39 1.35,0 2.45,-1.07 2.45,-2.39" /><path
             id="path176"
             style="fill:#ffffff;fill-opacity:1;fill-rule:nonzero;stroke:none"
             d="m 3225.09,2093.36 -1.29,-1.28 -1.27,1.28 1.27,1.28 1.29,-1.28" /><path
             id="path178"
             style="fill:#281619;fill-opacity:1;fill-rule:nonzero;stroke:none"
             d="m 3119.21,2104.25 c -15.16,0 -12.81,-11.31 -17.7,-14.33 -1.32,0.81 -9.64,3.61 -9.64,3.61 0,0 8,13.43 27.34,13.43 19.35,0 26.58,-13.19 26.58,-13.19 0,0 -2.99,0 -4.33,-0.83 -4.87,3.01 -7.06,11.31 -22.25,11.31" /><path
             id="path180"
             style="fill:#ffffff;fill-opacity:1;fill-rule:nonzero;stroke:none"
             d="m 3095.54,2093.53 c 0,0 3.14,-11.41 22.48,-11.41 19.33,0 27.3,11.65 27.3,11.65 0,0 -7.97,11.18 -27.3,11.18 -19.34,0 -22.48,-11.42 -22.48,-11.42" /><path
             id="path182"
             style="fill:#281619;fill-opacity:1;fill-rule:nonzero;stroke:none"
             d="m 3131.28,2093.77 c 0,-4.58 -2.25,-8.63 -5.65,-11.07 -2.46,-0.38 -5,-0.58 -7.61,-0.58 -2.6,0 -5.18,0.2 -7.6,0.58 -3.46,2.44 -5.66,6.49 -5.66,11.07 0,4.57 2.2,8.58 5.66,11.03 2.42,0.38 5,0.61 7.6,0.61 2.61,0 5.15,-0.23 7.61,-0.61 3.4,-2.45 5.65,-6.46 5.65,-11.03" /><path
             id="path184"
             style="fill:#1a0d0e;fill-opacity:1;fill-rule:nonzero;stroke:none"
             d="m 3112.65,2093.53 c 0,-2.98 2.38,-5.42 5.37,-5.42 2.97,0 5.39,2.44 5.39,5.42 0,2.96 -2.42,5.38 -5.39,5.38 -2.99,0 -5.37,-2.42 -5.37,-5.38" /><path
             id="path186"
             style="fill:#ffffff;fill-opacity:1;fill-rule:nonzero;stroke:none"
             d="m 3119.46,2098.68 c 0,-1.37 1.1,-2.42 2.44,-2.42 1.33,0 2.39,1.05 2.39,2.42 0,1.32 -1.06,2.39 -2.39,2.39 -1.34,0 -2.44,-1.07 -2.44,-2.39" /><path
             id="path188"
             style="fill:#ffffff;fill-opacity:1;fill-rule:nonzero;stroke:none"
             d="m 3117.9,2093.36 1.25,-1.28 1.29,1.28 -1.29,1.28 -1.25,-1.28" /></g></g><path
         id="path190"
         style="fill:#a7a5a6;fill-opacity:1;fill-rule:nonzero;stroke:none"
         d="m 3793.62,2226.53 h -333.08 v 63.01 h 333.08 v -63.01" /><path
         id="path192"
         style="fill:#d3d2d2;fill-opacity:1;fill-rule:nonzero;stroke:none"
         d="m 3793.62,2150.01 h -333.08 v 31.5 h 333.08 v -31.5" /><path
         id="path194"
         style="fill:#d3d2d2;fill-opacity:1;fill-rule:nonzero;stroke:none"
         d="M 3793.62,2085.51 H 3460.54 V 2117 h 333.08 v -31.49" /><path
         id="path196"
         style="fill:#d3d2d2;fill-opacity:1;fill-rule:nonzero;stroke:none"
         d="m 3793.62,2020.96 h -333.08 v 31.53 h 333.08 v -31.53" /><path
         id="path198"
         style="fill:#d3d2d2;fill-opacity:1;fill-rule:nonzero;stroke:none"
         d="M 3793.62,1956.47 H 3460.54 V 1988 h 333.08 v -31.53" /><path
         id="path200"
         style="fill:#d3d2d2;fill-opacity:1;fill-rule:nonzero;stroke:none"
         d="m 3793.62,1891.97 h -333.08 v 31.49 h 333.08 v -31.49" /><path
         id="path202"
         style="fill:#d3d2d2;fill-opacity:1;fill-rule:nonzero;stroke:none"
         d="m 3793.62,1827.46 h -333.08 v 31.51 h 333.08 v -31.51" /><path
         id="path204"
         style="fill:#d3d2d2;fill-opacity:1;fill-rule:nonzero;stroke:none"
         d="m 3793.62,1695.4 h -825.21 v 31.49 h 825.21 v -31.49" /><path
         id="path206"
         style="fill:#d3d2d2;fill-opacity:1;fill-rule:nonzero;stroke:none"
         d="m 3793.62,1617.38 h -825.21 v 31.5 h 825.21 v -31.5" /><path
         id="path208"
         style="fill:#cac9ca;fill-opacity:1;fill-rule:nonzero;stroke:none"
         d="m 3067.98,2684.13 h -663.52 c -33.18,0 -62.37,16.92 -79.51,42.6 -15.84,17.04 -25.59,39.82 -25.59,64.91 v 705.97 47.8 c 0,45.84 32.29,84.14 75.38,93.39 -17.46,-17.32 -28.27,-41.32 -28.27,-67.84 v -753.72 c 0,-52.8 42.78,-95.56 95.55,-95.56 h 663.51 c 16.73,0 32.46,4.3 46.14,11.86 -16.28,-29.47 -47.66,-49.41 -83.69,-49.41" /><path
         id="path210"
         style="fill:#bdbcbd;fill-opacity:1;fill-rule:nonzero;stroke:none"
         d="m 3151.67,2733.54 c 7.55,13.68 11.85,29.41 11.85,46.14 v 753.73 c 0,25.08 -9.76,47.84 -25.57,64.89 -17.12,25.7 -46.36,42.63 -79.53,42.63 H 2394.9 c -6.92,0 -13.66,-0.73 -20.16,-2.13 17.26,17.13 41.04,27.72 67.28,27.72 h 663.51 c 52.76,0 95.54,-42.8 95.54,-95.56 v -753.72 c 0,-36.06 -19.95,-67.43 -49.4,-83.7" /><path
         id="path212"
         style="fill:#9f9d9e;fill-opacity:1;fill-rule:nonzero;stroke:none"
         d="m 3105.53,2721.68 h -663.51 c -52.77,0 -95.55,42.76 -95.55,95.56 v 753.72 c 0,26.52 10.81,50.52 28.27,67.84 6.5,1.4 13.24,2.13 20.16,2.13 h 663.52 c 33.17,0 62.41,-16.93 79.53,-42.63 15.81,-17.05 25.57,-39.81 25.57,-64.89 v -753.73 c 0,-16.73 -4.3,-32.46 -11.85,-46.14 -13.68,-7.56 -29.41,-11.86 -46.14,-11.86" /><path
         id="path214"
         style="fill:#ffffff;fill-opacity:1;fill-rule:nonzero;stroke:none"
         d="m 3191.51,2829.2 c 0,-52.77 -42.78,-95.54 -95.54,-95.54 h -663.52 c -52.75,0 -95.55,42.77 -95.55,95.54 v 753.76 c 0,52.76 42.8,95.52 95.55,95.52 h 663.52 c 52.76,0 95.54,-42.76 95.54,-95.52 V 2829.2" /><path
         id="path216"
         style="fill:#1f4c7f;fill-opacity:1;fill-rule:nonzero;stroke:none"
         d="m 3191.51,3535.16 v 47.8 c 0,52.76 -42.78,95.52 -95.54,95.52 h -663.52 c -52.75,0 -95.55,-42.76 -95.55,-95.52 v -47.8 h 854.61" /><path
         id="path218"
         style="fill:#ffffff;fill-opacity:1;fill-rule:nonzero;stroke:none"
         d="m 3008.39,3575.48 c 0,-4.32 -3.5,-7.8 -7.81,-7.8 h -52.05 c -4.32,0 -7.82,3.48 -7.82,7.8 v 52.07 c 0,4.31 3.5,7.82 7.82,7.82 h 52.05 c 4.31,0 7.81,-3.51 7.81,-7.82 v -52.07" /><path
         id="path220"
         style="fill:#ffffff;fill-opacity:1;fill-rule:nonzero;stroke:none"
         d="m 3106.58,3575.48 c 0,-4.32 -3.49,-7.8 -7.8,-7.8 h -52.07 c -4.31,0 -7.8,3.48 -7.8,7.8 v 52.07 c 0,4.31 3.49,7.82 7.8,7.82 h 52.07 c 4.31,0 7.8,-3.51 7.8,-7.82 v -52.07" /><path
         id="path222"
         style="fill:#ffffff;fill-opacity:1;fill-rule:nonzero;stroke:none"
         d="m 2895.59,3601.52 c 0,-18.69 -15.16,-33.84 -33.84,-33.84 h -437.9 c -18.7,0 -33.84,15.15 -33.84,33.84 0,18.69 15.14,33.85 33.84,33.85 h 437.9 c 18.68,0 33.84,-15.16 33.84,-33.85" /><path
         id="path224"
         style="fill:#d3d2d2;fill-opacity:1;fill-rule:nonzero;stroke:none"
         d="m 2812,3242.76 c 0,-113.26 -91.79,-205.05 -205.04,-205.05 -113.21,0 -205.02,91.79 -205.02,205.05 0,113.22 91.81,205.03 205.02,205.03 113.25,0 205.04,-91.81 205.04,-205.03" /><g
         id="g226"><g
           clip-path="url(#clipPath232)"
           id="g228"><path
             id="path234"
             style="fill:#df6821;fill-opacity:1;fill-rule:nonzero;stroke:none"
             d="m 2674.86,3164.45 c -33.46,-30.5 -108.33,-25.27 -130.8,-8.14 -22.44,17.13 -64.64,42.29 -48.48,125.07 16.04,82.01 212.49,60.91 216.99,0 4.49,-60.93 -5.7,-87.79 -37.71,-116.93" /><path
             id="path236"
             style="fill:#efc5a3;fill-opacity:1;fill-rule:nonzero;stroke:none"
             d="m 2674.99,2958.15 h 31.88 l -0.86,11.25 c 0,0 -3.44,98.89 -7.26,126.65 -3.79,27.75 -25.69,27.47 -25.69,27.47 l -15.9,-46.55 c 0,0 14.11,-87.87 15.85,-106.69 0.24,-2.68 0.95,-6.95 1.98,-12.13" /><path
             id="path238"
             style="fill:#efc5a3;fill-opacity:1;fill-rule:nonzero;stroke:none"
             d="m 2526.04,2958.15 c 1.13,5.69 1.94,10.33 2.21,13.2 1.7,18.81 15.81,106.69 15.81,106.69 l -15.89,46.57 c 0,0 -21.88,0.28 -25.7,-27.49 -3.81,-27.73 -7.26,-126.63 -7.26,-126.63 l -0.9,-12.34 h 31.73" /><path
             id="path240"
             style="fill:#b42026;fill-opacity:1;fill-rule:nonzero;stroke:none"
             d="m 2531.87,2996.62 8.57,-38.47 h 120.54 l 12.78,38.47 c 0,0 20.22,14.94 20.03,28.81 -0.2,13.89 -25.75,51.55 -25.75,51.55 l 8.88,47.54 -38.09,18 h -74.04 l -37.26,-17.17 7.73,-48.37 c 0,0 -20.73,-36.5 -21.02,-51.55 -0.3,-15.03 17.63,-28.81 17.63,-28.81" /><path
             id="path242"
             style="fill:#efc5a3;fill-opacity:1;fill-rule:nonzero;stroke:none"
             d="m 2638.83,3142.52 c 0,0 13.45,-52.64 6.18,-66.11 -8.18,-15.13 -74.39,-13.89 -83.3,0 -8.87,13.86 3.08,66.11 3.08,66.11 l 11.4,5.4 v 50.68 h 50.9 v -48.36 l 11.74,-7.72" /><path
             id="path244"
             style="fill:#d9836d;fill-opacity:1;fill-rule:nonzero;stroke:none"
             d="m 2618.56,3150.71 c 2.95,0.83 5.8,1.86 8.53,3.01 v 44.88 h -50.9 v -40.5 c 13.52,-6.34 26.65,-11.84 42.37,-7.39" /><path
             id="path246"
             style="fill:#efc5a3;fill-opacity:1;fill-rule:nonzero;stroke:none"
             d="m 2712.96,3229.19 c -6.99,-2.91 -15.06,2.08 -15.06,2.08 0,0 -35.88,-1.86 -35.88,7.49 0,9.35 0,14.61 0,31.27 0,22.31 35.88,20.08 35.88,20.08 0,0 8.09,11.35 18.95,3.6 17.12,-12.23 9.55,-58.9 -3.89,-64.52" /><path
             id="path248"
             style="fill:#efc5a3;fill-opacity:1;fill-rule:nonzero;stroke:none"
             d="m 2501.06,3229.19 c 7,-2.91 15.06,2.08 15.06,2.08 0,0 35.86,-1.86 35.86,7.49 0,9.35 0,14.61 0,31.27 0,22.31 -35.86,20.08 -35.86,20.08 0,0 -8.09,11.35 -18.94,3.6 -17.15,-12.23 -9.57,-58.9 3.88,-64.52" /><path
             id="path250"
             style="fill:#efc5a3;fill-opacity:1;fill-rule:nonzero;stroke:none"
             d="m 2698.75,3241.97 c 0,-41.48 -60.09,-87.5 -92.29,-87.5 -35.43,0 -92.33,48.94 -92.33,90.1 0,48.58 0,48.58 0,86.74 0,122.61 184.62,130.69 184.62,0 0,-83.27 0,-29.78 0,-89.34" /><path
             id="path252"
             style="fill:#df6821;fill-opacity:1;fill-rule:nonzero;stroke:none"
             d="m 2519.79,3288.82 c -0.66,11.68 18.7,21.06 20.63,63.64 16.09,-8.92 93.93,-54.57 152.68,-63.39 -0.66,-24.69 5.19,-32.69 6.87,-39.84 0,0 0.16,21.32 0,32.28 -0.12,11 13.87,14.91 13.87,14.91 v 37.78 c 0,20.32 -20.84,114.61 -107.87,92.53 -82.88,19.21 -120.43,-67.81 -118.69,-89.21 1.72,-21.41 4.05,-50.41 4.05,-50.41 0,0 18.99,17.62 21.59,-6.66 1.39,-13.08 0.26,-26.89 9.73,-29.09 -1.22,11.71 -2.05,22.54 -2.86,37.46" /><path
             id="path254"
             style="fill:#d9836d;fill-opacity:1;fill-rule:nonzero;stroke:none"
             d="m 2604.72,3282.46 v -60.76 l 10.71,8.39 z" /><path
             id="path256"
             style="fill:#df6821;fill-opacity:1;fill-rule:nonzero;stroke:none"
             d="m 2588.68,3294.41 c 0,0 -16.33,10.99 -26.75,7.51 -10.42,-3.47 -23.41,-14.74 -23.41,-14.74 l -1.42,5.43 c 0,0 9.68,11.76 23.86,12.91 14.18,1.17 27.72,-11.11 27.72,-11.11" /><path
             id="path258"
             style="fill:#ef276d;fill-opacity:1;fill-rule:nonzero;stroke:none"
             d="m 2579.64,3200.35 c 0,0 8.63,-8.29 13.51,-8.61 4.93,-0.35 22.87,-1.13 28.88,0.91 2.05,0.67 9.22,7.54 9.22,7.54 0,0 -20.65,1 -24.4,1.17 -3.72,0.18 -27.21,-1.01 -27.21,-1.01" /><path
             id="path260"
             style="fill:#f03b7c;fill-opacity:1;fill-rule:nonzero;stroke:none"
             d="m 2565.97,3206.76 c 0,0 12.66,-4.61 17.73,-4.01 5.06,0.55 13.57,7.68 15.59,6.82 2.03,-0.84 7.09,-2.97 7.09,-2.97 0,0 6.6,3.32 8.63,2.97 2.03,-0.37 12.54,-7.35 16.24,-6.82 3.66,0.47 12.22,4.01 12.22,4.01 0,0 -10.59,-7.03 -14.84,-8.31 -7.78,-2.31 -16.16,0.1 -21.74,0.47 -6.65,0.44 -16.35,-4.24 -23.95,-0.27 -7.61,4.01 -16.97,8.11 -16.97,8.11" /><path
             id="path262"
             style="fill:#df6821;fill-opacity:1;fill-rule:nonzero;stroke:none"
             d="m 2625.33,3295.47 c 0,0 16.34,10.96 26.75,7.49 10.41,-3.46 23.42,-14.73 23.42,-14.73 l 1.42,5.41 c 0,0 -9.68,11.77 -23.86,12.93 -14.18,1.15 -27.73,-11.1 -27.73,-11.1" /><path
             id="path264"
             style="fill:#281619;fill-opacity:1;fill-rule:nonzero;stroke:none"
             d="m 2648.02,3285.26 c 11.91,0 10.08,-8.84 13.88,-11.21 1.04,0.66 7.58,2.83 7.58,2.83 0,0 -6.31,10.57 -21.46,10.57 -15.18,0 -20.86,-10.37 -20.86,-10.37 0,0 2.35,0 3.4,-0.64 3.82,2.39 5.55,8.82 17.46,8.82" /><path
             id="path266"
             style="fill:#ffffff;fill-opacity:1;fill-rule:nonzero;stroke:none"
             d="m 2666.6,3276.88 c 0,0 -2.47,-8.96 -17.64,-8.96 -15.17,0 -21.43,9.16 -21.43,9.16 0,0 6.26,8.78 21.43,8.78 15.17,0 17.64,-8.98 17.64,-8.98" /><path
             id="path268"
             style="fill:#281619;fill-opacity:1;fill-rule:nonzero;stroke:none"
             d="m 2638.56,3277.07 c 0,-3.58 1.73,-6.76 4.42,-8.66 1.93,-0.3 3.91,-0.49 5.98,-0.49 2.05,0 4.05,0.19 5.97,0.49 2.68,1.9 4.44,5.08 4.44,8.66 0,3.58 -1.76,6.76 -4.44,8.7 -1.92,0.26 -3.92,0.43 -5.97,0.43 -2.07,0 -4.05,-0.17 -5.98,-0.43 -2.69,-1.94 -4.42,-5.12 -4.42,-8.7" /><path
             id="path270"
             style="fill:#1a0d0e;fill-opacity:1;fill-rule:nonzero;stroke:none"
             d="m 2653.17,3276.88 c 0,-2.31 -1.87,-4.22 -4.21,-4.22 -2.33,0 -4.24,1.91 -4.24,4.22 0,2.35 1.91,4.24 4.24,4.24 2.34,0 4.21,-1.89 4.21,-4.24" /><path
             id="path272"
             style="fill:#ffffff;fill-opacity:1;fill-rule:nonzero;stroke:none"
             d="m 2647.82,3280.93 c 0,-1.06 -0.86,-1.91 -1.9,-1.91 -1.06,0 -1.91,0.85 -1.91,1.91 0,1.05 0.85,1.87 1.91,1.87 1.04,0 1.9,-0.82 1.9,-1.87" /><path
             id="path274"
             style="fill:#ffffff;fill-opacity:1;fill-rule:nonzero;stroke:none"
             d="m 2649.05,3276.77 -1.01,-1 -0.98,1 0.98,1 1.01,-1" /><path
             id="path276"
             style="fill:#281619;fill-opacity:1;fill-rule:nonzero;stroke:none"
             d="m 2566,3285.26 c -11.89,0 -10.05,-8.84 -13.86,-11.21 -1.06,0.66 -7.62,2.83 -7.62,2.83 0,0 6.31,10.57 21.48,10.57 15.18,0 20.85,-10.37 20.85,-10.37 0,0 -2.35,0 -3.4,-0.64 -3.81,2.39 -5.55,8.82 -17.45,8.82" /><path
             id="path278"
             style="fill:#ffffff;fill-opacity:1;fill-rule:nonzero;stroke:none"
             d="m 2547.43,3276.88 c 0,0 2.45,-8.96 17.64,-8.96 15.15,0 21.4,9.16 21.4,9.16 0,0 -6.25,8.78 -21.4,8.78 -15.19,0 -17.64,-8.98 -17.64,-8.98" /><path
             id="path280"
             style="fill:#281619;fill-opacity:1;fill-rule:nonzero;stroke:none"
             d="m 2575.48,3277.07 c 0,-3.58 -1.76,-6.76 -4.45,-8.66 -1.91,-0.3 -3.91,-0.49 -5.96,-0.49 -2.05,0 -4.04,0.19 -5.97,0.49 -2.68,1.9 -4.45,5.08 -4.45,8.66 0,3.58 1.77,6.76 4.45,8.7 1.93,0.26 3.92,0.43 5.97,0.43 2.05,0 4.05,-0.17 5.96,-0.43 2.69,-1.94 4.45,-5.12 4.45,-8.7" /><path
             id="path282"
             style="fill:#1a0d0e;fill-opacity:1;fill-rule:nonzero;stroke:none"
             d="m 2560.83,3276.88 c 0,-2.31 1.91,-4.22 4.24,-4.22 2.32,0 4.23,1.91 4.23,4.22 0,2.35 -1.91,4.24 -4.23,4.24 -2.33,0 -4.24,-1.89 -4.24,-4.24" /><path
             id="path284"
             style="fill:#ffffff;fill-opacity:1;fill-rule:nonzero;stroke:none"
             d="m 2566.19,3280.93 c 0,-1.06 0.85,-1.91 1.91,-1.91 1.05,0 1.91,0.85 1.91,1.91 0,1.05 -0.86,1.87 -1.91,1.87 -1.06,0 -1.91,-0.82 -1.91,-1.87" /><path
             id="path286"
             style="fill:#ffffff;fill-opacity:1;fill-rule:nonzero;stroke:none"
             d="m 2564.97,3276.77 1,-1 1,1 -1,1 -1,-1" /></g></g><path
         id="path288"
         style="fill:#a7a5a6;fill-opacity:1;fill-rule:nonzero;stroke:none"
         d="m 3121.18,3380.55 h -275.29 v 52.09 h 275.29 v -52.09" /><path
         id="path290"
         style="fill:#d3d2d2;fill-opacity:1;fill-rule:nonzero;stroke:none"
         d="m 3121.18,3317.31 h -275.29 v 26.06 h 275.29 v -26.06" /><path
         id="path292"
         style="fill:#d3d2d2;fill-opacity:1;fill-rule:nonzero;stroke:none"
         d="m 3121.18,3263.99 h -275.29 v 26.05 h 275.29 v -26.05" /><path
         id="path294"
         style="fill:#d3d2d2;fill-opacity:1;fill-rule:nonzero;stroke:none"
         d="m 3121.18,3210.68 h -275.29 v 26.04 h 275.29 v -26.04" /><path
         id="path296"
         style="fill:#d3d2d2;fill-opacity:1;fill-rule:nonzero;stroke:none"
         d="m 3121.18,3157.36 h -275.29 v 26.05 h 275.29 v -26.05" /><path
         id="path298"
         style="fill:#d3d2d2;fill-opacity:1;fill-rule:nonzero;stroke:none"
         d="m 3121.18,3104.06 h -275.29 v 26.02 h 275.29 v -26.02" /><path
         id="path300"
         style="fill:#d3d2d2;fill-opacity:1;fill-rule:nonzero;stroke:none"
         d="m 3121.18,3050.74 h -275.29 v 26.02 h 275.29 v -26.02" /><path
         id="path302"
         style="fill:#d3d2d2;fill-opacity:1;fill-rule:nonzero;stroke:none"
         d="m 3121.18,2941.6 h -682.03 v 26.02 h 682.03 v -26.02" /><path
         id="path304"
         style="fill:#d3d2d2;fill-opacity:1;fill-rule:nonzero;stroke:none"
         d="m 3121.18,2877.1 h -682.03 v 26.04 h 682.03 v -26.04" /><path
         id="path306"
         style="fill:#e9e9e9;fill-opacity:1;fill-rule:nonzero;stroke:none"
         d="m 2125.99,308.629 c -643.07,0 -1164.381,54.562 -1164.381,121.871 0,67.289 521.311,121.84 1164.381,121.84 643.06,0 1164.37,-54.551 1164.37,-121.84 0,-67.309 -521.31,-121.871 -1164.37,-121.871 m 0,234.07 c -592.17,0 -1072.22,-50.238 -1072.22,-112.199 0,-61.98 480.05,-112.219 1072.22,-112.219 592.16,0 1072.22,50.239 1072.22,112.219 0,61.961 -480.06,112.199 -1072.22,112.199" /><path
         id="path308"
         style="fill:#e0dfe0;fill-opacity:1;fill-rule:nonzero;stroke:none"
         d="m 2125.99,318.281 c -592.17,0 -1072.22,50.239 -1072.22,112.219 0,61.961 480.05,112.199 1072.22,112.199 592.16,0 1072.22,-50.238 1072.22,-112.199 0,-61.98 -480.06,-112.219 -1072.22,-112.219 m 0,216.258 c -549.11,0 -994.24,-46.578 -994.24,-104.039 0,-57.48 445.13,-104.059 994.24,-104.059 549.1,0 994.23,46.579 994.23,104.059 0,57.461 -445.13,104.039 -994.23,104.039" /><path
         id="path310"
         style="fill:#d7d7d7;fill-opacity:1;fill-rule:nonzero;stroke:none"
         d="m 2125.99,326.441 c -549.11,0 -994.24,46.579 -994.24,104.059 0,57.461 445.13,104.039 994.24,104.039 549.1,0 994.23,-46.578 994.23,-104.039 0,-57.48 -445.13,-104.059 -994.23,-104.059 m 0,199.2 c -502.13,0 -909.18,-42.602 -909.18,-95.141 0,-52.551 407.05,-95.148 909.18,-95.148 502.12,0 909.17,42.597 909.17,95.148 0,52.539 -407.05,95.141 -909.17,95.141" /><path
         id="path312"
         style="fill:#d0cfcf;fill-opacity:1;fill-rule:nonzero;stroke:none"
         d="m 2125.99,335.352 c -502.13,0 -909.18,42.597 -909.18,95.148 0,52.539 407.05,95.141 909.18,95.141 502.12,0 909.17,-42.602 909.17,-95.141 0,-52.551 -407.05,-95.148 -909.17,-95.148 m 0,183.328 c -465.39,0 -842.66,-39.481 -842.66,-88.18 0,-48.719 377.27,-88.199 842.66,-88.199 465.39,0 842.65,39.48 842.65,88.199 0,48.699 -377.26,88.18 -842.65,88.18" /><path
         id="path314"
         style="fill:#c8c7c7;fill-opacity:1;fill-rule:nonzero;stroke:none"
         d="m 2125.99,342.301 c -465.39,0 -842.66,39.48 -842.66,88.199 0,48.699 377.27,88.18 842.66,88.18 465.39,0 842.65,-39.481 842.65,-88.18 0,-48.719 -377.26,-88.199 -842.65,-88.199 m 0,169.398 c -428.56,0 -775.96,-36.359 -775.96,-81.199 0,-44.859 347.4,-81.219 775.96,-81.219 428.55,0 775.95,36.36 775.95,81.219 0,44.84 -347.4,81.199 -775.95,81.199" /><path
         id="path316"
         style="fill:#c1c0c0;fill-opacity:1;fill-rule:nonzero;stroke:none"
         d="m 2125.99,349.281 c -428.56,0 -775.96,36.36 -775.96,81.219 0,44.84 347.4,81.199 775.96,81.199 428.55,0 775.95,-36.359 775.95,-81.199 0,-44.859 -347.4,-81.219 -775.95,-81.219 m 0,155.848 c -393.89,0 -713.2,-33.41 -713.2,-74.629 0,-41.219 319.31,-74.641 713.2,-74.641 393.88,0 713.19,33.422 713.19,74.641 0,41.219 -319.31,74.629 -713.19,74.629" /><path
         id="path318"
         style="fill:#bbbaba;fill-opacity:1;fill-rule:nonzero;stroke:none"
         d="m 2125.99,355.859 c -393.89,0 -713.2,33.422 -713.2,74.641 0,41.219 319.31,74.629 713.2,74.629 393.88,0 713.19,-33.41 713.19,-74.629 0,-41.219 -319.31,-74.641 -713.19,-74.641 m 0,143.36 c -362.72,0 -656.74,-30.778 -656.74,-68.719 0,-37.961 294.02,-68.738 656.74,-68.738 362.71,0 656.73,30.777 656.73,68.738 0,37.941 -294.02,68.719 -656.73,68.719" /><path
         id="path320"
         style="fill:#b5b3b4;fill-opacity:1;fill-rule:nonzero;stroke:none"
         d="m 2125.99,361.762 c -362.72,0 -656.74,30.777 -656.74,68.738 0,37.941 294.02,68.719 656.74,68.719 362.71,0 656.73,-30.778 656.73,-68.719 0,-37.961 -294.02,-68.738 -656.73,-68.738 m 0,132.468 c -336.33,0 -608.99,-28.539 -608.99,-63.73 0,-35.211 272.66,-63.75 608.99,-63.75 336.32,0 608.98,28.539 608.98,63.75 0,35.191 -272.66,63.73 -608.98,63.73" /><path
         id="path322"
         style="fill:#b0aeaf;fill-opacity:1;fill-rule:nonzero;stroke:none"
         d="m 2125.99,366.75 c -336.33,0 -608.99,28.539 -608.99,63.75 0,35.191 272.66,63.73 608.99,63.73 336.32,0 608.98,-28.539 608.98,-63.73 0,-35.211 -272.66,-63.75 -608.98,-63.75 m 0,122.02 c -307.56,0 -556.88,-26.098 -556.88,-58.27 0,-32.191 249.32,-58.289 556.88,-58.289 307.55,0 556.87,26.098 556.87,58.289 0,32.172 -249.32,58.27 -556.87,58.27" /><path
         id="path324"
         style="fill:#aaa9a9;fill-opacity:1;fill-rule:nonzero;stroke:none"
         d="m 2125.99,372.211 c -307.56,0 -556.88,26.098 -556.88,58.289 0,32.172 249.32,58.27 556.88,58.27 307.55,0 556.87,-26.098 556.87,-58.27 0,-32.191 -249.32,-58.289 -556.87,-58.289 m 0,112.301 c -285.05,0 -516.14,-24.192 -516.14,-54.012 0,-29.84 231.09,-54.02 516.14,-54.02 285.05,0 516.13,24.18 516.13,54.02 0,29.82 -231.08,54.012 -516.13,54.012" /><path
         id="path326"
         style="fill:#a5a4a4;fill-opacity:1;fill-rule:nonzero;stroke:none"
         d="m 2125.99,376.48 c -285.05,0 -516.14,24.18 -516.14,54.02 0,29.82 231.09,54.012 516.14,54.012 285.05,0 516.13,-24.192 516.13,-54.012 0,-29.84 -231.08,-54.02 -516.13,-54.02 m 0,103.75 c -262.49,0 -475.29,-22.261 -475.29,-49.73 0,-27.48 212.8,-49.75 475.29,-49.75 262.49,0 475.28,22.27 475.28,49.75 0,27.469 -212.79,49.73 -475.28,49.73" /><path
         id="path328"
         style="fill:#a19fa0;fill-opacity:1;fill-rule:nonzero;stroke:none"
         d="m 2125.99,380.75 c -262.49,0 -475.29,22.27 -475.29,49.75 0,27.469 212.8,49.73 475.29,49.73 262.49,0 475.28,-22.261 475.28,-49.73 0,-27.48 -212.79,-49.75 -475.28,-49.75 m 0,95.871 c -243.4,0 -440.73,-20.66 -440.73,-46.121 0,-25.48 197.33,-46.129 440.73,-46.129 243.39,0 440.72,20.649 440.72,46.129 0,25.461 -197.33,46.121 -440.72,46.121" /><path
         id="path330"
         style="fill:#9d9b9b;fill-opacity:1;fill-rule:nonzero;stroke:none"
         d="m 2125.99,384.371 c -243.4,0 -440.73,20.649 -440.73,46.129 0,25.461 197.33,46.121 440.73,46.121 243.39,0 440.72,-20.66 440.72,-46.121 0,-25.48 -197.33,-46.129 -440.72,-46.129 m 0,88.289 c -222.58,0 -403.01,-18.871 -403.01,-42.16 0,-23.309 180.43,-42.18 403.01,-42.18 222.57,0 403,18.871 403,42.18 0,23.289 -180.43,42.16 -403,42.16" /><path
         id="path332"
         style="fill:#989697;fill-opacity:1;fill-rule:nonzero;stroke:none"
         d="m 2125.99,388.32 c -222.58,0 -403.01,18.871 -403.01,42.18 0,23.289 180.43,42.16 403.01,42.16 222.57,0 403,-18.871 403,-42.16 0,-23.309 -180.43,-42.18 -403,-42.18 m 0,81.559 c -207.86,0 -376.36,-17.641 -376.36,-39.379 0,-21.762 168.5,-39.398 376.36,-39.398 207.86,0 376.35,17.636 376.35,39.398 0,21.738 -168.49,39.379 -376.35,39.379" /><path
         id="path334"
         style="fill:#959393;fill-opacity:1;fill-rule:nonzero;stroke:none"
         d="m 2125.99,391.102 c -207.86,0 -376.36,17.636 -376.36,39.398 0,21.738 168.5,39.379 376.36,39.379 207.86,0 376.35,-17.641 376.35,-39.379 0,-21.762 -168.49,-39.398 -376.35,-39.398 m 0,75.668 c -191.41,0 -346.58,-16.25 -346.58,-36.27 0,-20.039 155.17,-36.27 346.58,-36.27 191.4,0 346.57,16.231 346.57,36.27 0,20.02 -155.17,36.27 -346.57,36.27" /><path
         id="path336"
         style="fill:#918f90;fill-opacity:1;fill-rule:nonzero;stroke:none"
         d="m 2125.99,394.23 c -191.41,0 -346.58,16.231 -346.58,36.27 0,20.02 155.17,36.27 346.58,36.27 191.4,0 346.57,-16.25 346.57,-36.27 0,-20.039 -155.17,-36.27 -346.57,-36.27 m 0,69.891 c -177.48,0 -321.37,-15.051 -321.37,-33.621 0,-18.582 143.89,-33.641 321.37,-33.641 177.48,0 321.36,15.059 321.36,33.641 0,18.57 -143.88,33.621 -321.36,33.621" /><path
         id="path338"
         style="fill:#8e8c8c;fill-opacity:1;fill-rule:nonzero;stroke:none"
         d="m 2125.99,396.859 c -177.48,0 -321.37,15.059 -321.37,33.641 0,18.57 143.89,33.621 321.37,33.621 177.48,0 321.36,-15.051 321.36,-33.621 0,-18.582 -143.88,-33.641 -321.36,-33.641 m 0,64.391 c -162.31,0 -293.87,-13.77 -293.87,-30.75 0,-17 131.56,-30.77 293.87,-30.77 162.3,0 293.86,13.77 293.86,30.77 0,16.98 -131.56,30.75 -293.86,30.75" /><path
         id="path340"
         style="fill:#8b898a;fill-opacity:1;fill-rule:nonzero;stroke:none"
         d="m 2125.99,399.73 c -162.31,0 -293.87,13.77 -293.87,30.77 0,16.98 131.56,30.75 293.87,30.75 162.3,0 293.86,-13.77 293.86,-30.75 0,-17 -131.56,-30.77 -293.86,-30.77 m 0,57.918 c -143.32,0 -259.51,-12.16 -259.51,-27.148 0,-15 116.19,-27.16 259.51,-27.16 143.32,0 259.49,12.16 259.49,27.16 0,14.988 -116.17,27.148 -259.49,27.148" /><path
         id="path342"
         style="fill:#898787;fill-opacity:1;fill-rule:nonzero;stroke:none"
         d="m 2125.99,403.34 c -143.32,0 -259.51,12.16 -259.51,27.16 0,14.988 116.19,27.148 259.51,27.148 143.32,0 259.49,-12.16 259.49,-27.148 0,-15 -116.17,-27.16 -259.49,-27.16 m 0,51.91 c -130.67,0 -236.59,-11.082 -236.59,-24.75 0,-13.691 105.92,-24.77 236.59,-24.77 130.66,0 236.58,11.079 236.58,24.77 0,13.668 -105.92,24.75 -236.58,24.75" /><path
         id="path344"
         style="fill:#868485;fill-opacity:1;fill-rule:nonzero;stroke:none"
         d="m 2125.99,405.73 c -130.67,0 -236.59,11.079 -236.59,24.77 0,13.668 105.92,24.75 236.59,24.75 130.66,0 236.58,-11.082 236.58,-24.75 0,-13.691 -105.92,-24.77 -236.58,-24.77 m 0,47.84 c -121.81,0 -220.55,-10.332 -220.55,-23.07 0,-12.762 98.74,-23.09 220.55,-23.09 121.8,0 220.54,10.328 220.54,23.09 0,12.738 -98.74,23.07 -220.54,23.07" /><path
         id="path346"
         style="fill:#848182;fill-opacity:1;fill-rule:nonzero;stroke:none"
         d="m 2125.99,407.41 c -121.81,0 -220.55,10.328 -220.55,23.09 0,12.738 98.74,23.07 220.55,23.07 121.8,0 220.54,-10.332 220.54,-23.07 0,-12.762 -98.74,-23.09 -220.54,-23.09 m 0,44.34 c -112.17,0 -203.09,-9.531 -203.09,-21.25 0,-11.742 90.92,-21.262 203.09,-21.262 112.16,0 203.08,9.52 203.08,21.262 0,11.719 -90.92,21.25 -203.08,21.25" /><path
         id="path348"
         style="fill:#828080;fill-opacity:1;fill-rule:nonzero;stroke:none"
         d="m 2125.99,409.238 c -112.17,0 -203.09,9.52 -203.09,21.262 0,11.719 90.92,21.25 203.09,21.25 112.16,0 203.08,-9.531 203.08,-21.25 0,-11.742 -90.92,-21.262 -203.08,-21.262 m 0,40.961 c -104.01,0 -188.32,-8.828 -188.32,-19.699 0,-10.891 84.31,-19.719 188.32,-19.719 104,0 188.32,8.828 188.32,19.719 0,10.871 -84.32,19.699 -188.32,19.699" /><path
         id="path350"
         style="fill:#807e7f;fill-opacity:1;fill-rule:nonzero;stroke:none"
         d="m 2125.99,410.781 c -104.01,0 -188.32,8.828 -188.32,19.719 0,10.871 84.31,19.699 188.32,19.699 104,0 188.32,-8.828 188.32,-19.699 0,-10.891 -84.32,-19.719 -188.32,-19.719 m 0,37.731 c -95.11,0 -172.21,-8.063 -172.21,-18.012 0,-9.969 77.1,-18.031 172.21,-18.031 95.1,0 172.2,8.062 172.2,18.031 0,9.949 -77.1,18.012 -172.2,18.012" /><path
         id="path352"
         style="fill:#7f7c7d;fill-opacity:1;fill-rule:nonzero;stroke:none"
         d="m 2125.99,412.469 c -95.11,0 -172.21,8.062 -172.21,18.031 0,9.949 77.1,18.012 172.21,18.012 95.1,0 172.2,-8.063 172.2,-18.012 0,-9.969 -77.1,-18.031 -172.2,-18.031 m 0,33.929 c -83.99,0 -152.07,-7.128 -152.07,-15.898 0,-8.789 68.08,-15.922 152.07,-15.922 83.98,0 152.07,7.133 152.07,15.922 0,8.77 -68.09,15.898 -152.07,15.898" /><path
         id="path354"
         style="fill:#7d7a7b;fill-opacity:1;fill-rule:nonzero;stroke:none"
         d="m 2125.99,414.578 c -83.99,0 -152.07,7.133 -152.07,15.922 0,8.77 68.08,15.898 152.07,15.898 83.98,0 152.07,-7.128 152.07,-15.898 0,-8.789 -68.09,-15.922 -152.07,-15.922 M 1987.35,430.5 v 0 c 0,-8.02 62.07,-14.52 138.64,-14.52 76.56,0 138.63,6.5 138.63,14.52 v 0 0 c 0,8 -62.07,14.5 -138.63,14.5 -76.57,0 -138.64,-6.5 -138.64,-14.5 v 0" /><path
         id="path356"
         style="fill:#797778;fill-opacity:1;fill-rule:nonzero;stroke:none"
         d="m 2125.99,415.98 c -76.57,0 -138.64,6.5 -138.64,14.52 0,8 62.07,14.5 138.64,14.5 76.56,0 138.63,-6.5 138.63,-14.5 0,-8.02 -62.07,-14.52 -138.63,-14.52 m 0,27.879 c -70.51,0 -127.67,-5.988 -127.67,-13.359 0,-7.391 57.16,-13.371 127.67,-13.371 70.5,0 127.66,5.98 127.66,13.371 0,7.371 -57.16,13.359 -127.66,13.359" /><path
         id="path358"
         style="fill:#787576;fill-opacity:1;fill-rule:nonzero;stroke:none"
         d="m 2125.99,417.129 c -70.51,0 -127.67,5.98 -127.67,13.371 0,7.371 57.16,13.359 127.67,13.359 70.5,0 127.66,-5.988 127.66,-13.359 0,-7.391 -57.16,-13.371 -127.66,-13.371 m 0,25.75 c -65.38,0 -118.38,-5.551 -118.38,-12.379 0,-6.852 53,-12.398 118.38,-12.398 65.38,0 118.38,5.546 118.38,12.398 0,6.828 -53,12.379 -118.38,12.379" /><path
         id="path360"
         style="fill:#777475;fill-opacity:1;fill-rule:nonzero;stroke:none"
         d="m 2125.99,418.102 c -65.38,0 -118.38,5.546 -118.38,12.398 0,6.828 53,12.379 118.38,12.379 65.38,0 118.38,-5.551 118.38,-12.379 0,-6.852 -53,-12.398 -118.38,-12.398 m 0,23.718 c -59.79,0 -108.26,-5.07 -108.26,-11.32 0,-6.262 48.47,-11.34 108.26,-11.34 59.78,0 108.25,5.078 108.25,11.34 0,6.25 -48.47,11.32 -108.25,11.32" /><path
         id="path362"
         style="fill:#767374;fill-opacity:1;fill-rule:nonzero;stroke:none"
         d="m 2125.99,419.16 c -59.79,0 -108.26,5.078 -108.26,11.34 0,6.25 48.47,11.32 108.26,11.32 59.78,0 108.25,-5.07 108.25,-11.32 0,-6.262 -48.47,-11.34 -108.25,-11.34 m 0,21.34 c -52.8,0 -95.59,-4.488 -95.59,-10 0,-5.531 42.79,-10.012 95.59,-10.012 52.79,0 95.58,4.481 95.58,10.012 0,5.512 -42.79,10 -95.58,10" /><path
         id="path364"
         style="fill:#757373;fill-opacity:1;fill-rule:nonzero;stroke:none"
         d="m 2125.99,420.488 c -52.8,0 -95.59,4.481 -95.59,10.012 0,5.512 42.79,10 95.59,10 52.79,0 95.58,-4.488 95.58,-10 0,-5.531 -42.79,-10.012 -95.58,-10.012 m 0,19.121 c -48.14,0 -87.15,-4.089 -87.15,-9.109 0,-5.039 39.01,-9.129 87.15,-9.129 48.13,0 87.14,4.09 87.14,9.129 0,5.02 -39.01,9.109 -87.14,9.109" /><path
         id="path366"
         style="fill:#747272;fill-opacity:1;fill-rule:nonzero;stroke:none"
         d="m 2125.99,421.371 c -48.14,0 -87.15,4.09 -87.15,9.129 0,5.02 39.01,9.109 87.15,9.109 48.13,0 87.14,-4.089 87.14,-9.109 0,-5.039 -39.01,-9.129 -87.14,-9.129 m 0,17.617 c -44.87,0 -81.24,-3.797 -81.24,-8.488 0,-4.699 36.37,-8.512 81.24,-8.512 44.86,0 81.24,3.813 81.24,8.512 0,4.691 -36.38,8.488 -81.24,8.488" /><path
         id="path368"
         style="fill:#737171;fill-opacity:1;fill-rule:nonzero;stroke:none"
         d="m 2125.99,421.988 c -44.87,0 -81.24,3.813 -81.24,8.512 0,4.691 36.37,8.488 81.24,8.488 44.86,0 81.24,-3.797 81.24,-8.488 0,-4.699 -36.38,-8.512 -81.24,-8.512 m 0,16.332 c -41.32,0 -74.82,-3.511 -74.82,-7.82 0,-4.328 33.5,-7.84 74.82,-7.84 41.31,0 74.81,3.512 74.81,7.84 0,4.309 -33.5,7.82 -74.81,7.82" /><path
         id="path370"
         style="fill:#727071;fill-opacity:1;fill-rule:nonzero;stroke:none"
         d="m 2125.99,422.66 c -41.32,0 -74.82,3.512 -74.82,7.84 0,4.309 33.5,7.82 74.82,7.82 41.31,0 74.81,-3.511 74.81,-7.82 0,-4.328 -33.5,-7.84 -74.81,-7.84 m 0,15.09 c -38.31,0 -69.37,-3.25 -69.37,-7.25 0,-4.02 31.06,-7.27 69.37,-7.27 38.31,0 69.37,3.25 69.37,7.27 0,4 -31.06,7.25 -69.37,7.25" /><path
         id="path372"
         style="fill:#726f70;fill-opacity:1;fill-rule:nonzero;stroke:none"
         d="m 2125.99,423.23 c -38.31,0 -69.37,3.25 -69.37,7.27 0,4 31.06,7.25 69.37,7.25 38.31,0 69.37,-3.25 69.37,-7.25 0,-4.02 -31.06,-7.27 -69.37,-7.27 m 0,13.899 c -35.04,0 -63.44,-2.969 -63.44,-6.629 0,-3.68 28.4,-6.648 63.44,-6.648 35.04,0 63.43,2.968 63.43,6.648 0,3.66 -28.39,6.629 -63.43,6.629" /><path
         id="path374"
         style="fill:#716e6f;fill-opacity:1;fill-rule:nonzero;stroke:none"
         d="m 2125.99,423.852 c -35.04,0 -63.44,2.968 -63.44,6.648 0,3.66 28.4,6.629 63.44,6.629 35.04,0 63.43,-2.969 63.43,-6.629 0,-3.68 -28.39,-6.648 -63.43,-6.648 m 0,12.507 c -30.94,0 -56.02,-2.629 -56.02,-5.859 0,-3.25 25.08,-5.871 56.02,-5.871 30.93,0 56.01,2.621 56.01,5.871 0,3.23 -25.08,5.859 -56.01,5.859" /><path
         id="path376"
         style="fill:#706d6e;fill-opacity:1;fill-rule:nonzero;stroke:none"
         d="m 2125.99,424.629 c -30.94,0 -56.02,2.621 -56.02,5.871 0,3.23 25.08,5.859 56.02,5.859 30.93,0 56.01,-2.629 56.01,-5.859 0,-3.25 -25.08,-5.871 -56.01,-5.871 m 0,11.211 c -28.21,0 -51.07,-2.399 -51.07,-5.34 0,-2.961 22.86,-5.359 51.07,-5.359 28.2,0 51.06,2.398 51.06,5.359 0,2.941 -22.86,5.34 -51.06,5.34" /><path
         id="path378"
         style="fill:#6f6c6d;fill-opacity:1;fill-rule:nonzero;stroke:none"
         d="m 2125.99,425.141 c -28.21,0 -51.07,2.398 -51.07,5.359 0,2.941 22.86,5.34 51.07,5.34 28.2,0 51.06,-2.399 51.06,-5.34 0,-2.961 -22.86,-5.359 -51.06,-5.359 m 0,9.937 c -24.2,0 -43.83,-2.058 -43.83,-4.578 0,-2.539 19.63,-4.59 43.83,-4.59 24.2,0 43.82,2.051 43.82,4.59 0,2.52 -19.62,4.578 -43.82,4.578" /><path
         id="path380"
         style="fill:#6e6c6c;fill-opacity:1;fill-rule:nonzero;stroke:none"
         d="m 2125.99,425.91 c -24.2,0 -43.83,2.051 -43.83,4.59 0,2.52 19.63,4.578 43.83,4.578 24.2,0 43.82,-2.058 43.82,-4.578 0,-2.539 -19.62,-4.59 -43.82,-4.59 m 0,8.352 c -19.94,0 -36.09,-1.684 -36.09,-3.762 0,-2.09 16.15,-3.781 36.09,-3.781 19.93,0 36.09,1.691 36.09,3.781 0,2.078 -16.16,3.762 -36.09,3.762" /><path
         id="path382"
         style="fill:#6d6b6b;fill-opacity:1;fill-rule:nonzero;stroke:none"
         d="m 2125.99,426.719 c -19.94,0 -36.09,1.691 -36.09,3.781 0,2.078 16.15,3.762 36.09,3.762 19.93,0 36.09,-1.684 36.09,-3.762 0,-2.09 -16.16,-3.781 -36.09,-3.781 m 0,6.383 c -13.76,0 -24.93,-1.172 -24.93,-2.602 0,-1.449 11.17,-2.609 24.93,-2.609 13.76,0 24.92,1.16 24.92,2.609 0,1.43 -11.16,2.602 -24.92,2.602" /><path
         id="path384"
         style="fill:#6c6a6a;fill-opacity:1;fill-rule:nonzero;stroke:none"
         d="m 2125.99,427.891 c -13.76,0 -24.93,1.16 -24.93,2.609 0,1.43 11.17,2.602 24.93,2.602 13.76,0 24.92,-1.172 24.92,-2.602 0,-1.449 -11.16,-2.609 -24.92,-2.609 m 0,4.371 c -9.34,0 -16.9,-0.793 -16.9,-1.762 0,-0.988 7.56,-1.77 16.9,-1.77 9.33,0 16.89,0.782 16.89,1.77 0,0.969 -7.56,1.762 -16.89,1.762" /><path
         id="path386"
         style="fill:#6c696a;fill-opacity:1;fill-rule:nonzero;stroke:none"
         d="m 2125.99,428.73 c -9.34,0 -16.9,0.782 -16.9,1.77 0,0.969 7.56,1.762 16.9,1.762 9.33,0 16.89,-0.793 16.89,-1.762 0,-0.988 -7.56,-1.77 -16.89,-1.77" /><path
         id="path388"
         style="fill:#db976f;fill-opacity:1;fill-rule:nonzero;stroke:none"
         d="m 1241.2,789.301 c 25.06,-54.352 72.33,-97.27 120.57,-126.36 10.95,-6.613 21.91,-13.222 32.87,-19.832 21.5,-12.968 42.99,-25.929 64.49,-38.91 12.66,-7.597 25.29,-15.238 37.93,-22.859 10.08,-6.09 26.74,-4.039 29.73,9.398 3.18,14.473 -8.15,24.422 -17.91,32.391 -8.75,7.16 -16.76,15.351 -25.35,22.75 -17.97,15.48 -35.12,31.922 -53.03,47.48 -3.97,3.43 -7.72,7.321 -11.86,10.571 4.69,-3.391 9.38,-6.782 14.08,-10.172 11.49,-8.297 22.97,-16.598 34.44,-24.918 14.45,-10.481 28.94,-20.922 43.38,-31.442 13.67,-9.937 27.36,-19.89 41.11,-29.769 9.96,-7.16 19.71,-14.777 30.08,-21.379 8.87,-5.66 24,-8.801 31.85,0.488 4.22,5 3.79,11.934 3.11,18.114 -0.74,6.687 -6.62,16.429 -11.6,21 -5.04,4.617 -9.77,9.25 -14.47,14.238 -12.62,13.379 -27.29,25.781 -41.27,37.719 -15.49,13.211 -30.86,26.5 -46.55,39.492 -13.06,10.801 -26.13,21.578 -39.14,32.449 -6.09,5.109 -12.2,10.359 -18.55,15.148 l -0.39,0.231 183.47,-144.039 c 12.25,-9.61 42.25,-25.699 55.08,-4.75 4.53,7.39 1.86,23.32 -1.93,30.441 -4.2,7.899 -11.49,13.43 -17.97,19.321 -13.54,12.257 -26.37,24.968 -40.39,36.757 -28.73,24.153 -57.23,48.539 -86.8,71.692 -6.54,5.117 -12.85,10.597 -19.57,15.469 20.92,-18.54 46.04,-35.36 69.16,-51.122 27.44,-18.668 44.88,-34.238 66.45,-46.898 5.62,-3.301 13.22,-9.16 19.88,-9.219 9.63,-0.109 22.19,2.278 27.03,9.547 6.88,10.32 -0.51,29.543 -9.82,37.613 -54.01,46.668 -92.03,77.957 -141.7,108.817 0,0 -42.29,25.683 -45.82,29.992 0,0 81.33,-44.52 134.57,-34.641 0,0 70.13,35.301 -43.85,59.071 0,0 -64.34,28.711 -104.34,48.25 0,0 -77.13,41.539 -169.74,13.8 0,0 -74.4,45.84 -93.69,62 l -71.39,-92.41 c 0,0 69.37,-95.422 87.85,-135.519" /><path
         id="path390"
         style="fill:#db976f;fill-opacity:1;fill-rule:nonzero;stroke:none"
         d="m 3041.46,880.121 c 5.01,-59.621 -14.93,-120.269 -42.54,-169.391 -6.27,-11.16 -12.56,-22.3 -18.81,-33.449 -12.31,-21.89 -24.59,-43.781 -36.9,-65.66 -7.26,-12.863 -14.47,-25.742 -21.72,-38.609 -5.76,-10.282 -21.27,-16.703 -30.48,-6.492 -9.93,11.019 -4.97,25.269 -0.41,37.011 4.08,10.547 7.01,21.629 10.82,32.309 7.98,22.32 14.8,45.078 22.71,67.441 1.76,4.938 3.09,10.18 5.1,15.059 -2.4,-5.281 -4.83,-10.531 -7.23,-15.789 -5.92,-12.891 -11.78,-25.789 -17.65,-38.68 -7.41,-16.25 -14.87,-32.48 -22.23,-48.73 -7.01,-15.422 -13.99,-30.813 -21.08,-46.18 -5.13,-11.16 -9.84,-22.602 -15.6,-33.449 -4.92,-9.282 -16.54,-19.492 -27.97,-15.282 -6.13,2.27 -9.18,8.5 -11.64,14.211 -2.68,6.2 -2.34,17.559 -0.25,23.989 2.11,6.511 3.92,12.879 5.54,19.531 4.38,17.867 11.04,35.891 17.31,53.18 6.95,19.121 13.75,38.277 20.99,57.3 6.04,15.84 12.07,31.68 18.05,47.539 2.75,7.45 5.51,15.04 8.67,22.34 l 0.22,0.391 -88.54,-215.813 c -5.92,-14.41 -24.06,-43.187 -45.56,-31.296 -7.6,4.187 -13.11,19.359 -13.34,27.418 -0.24,8.941 3.36,17.339 6.11,25.671 5.7,17.34 10.6,34.739 16.99,51.911 13.07,35.168 25.84,70.457 40.14,105.168 3.16,7.679 5.94,15.57 9.39,23.121 -9.06,-26.461 -22.59,-53.469 -34.96,-78.571 -14.67,-29.8 -22.15,-51.949 -34.67,-73.59 -3.24,-5.64 -6.97,-14.492 -12.71,-17.832 -8.34,-4.839 -20.45,-8.968 -28.26,-5.039 -11.06,5.602 -14.12,25.961 -10,37.563 23.96,67.246 41.6,113.219 69.57,164.566 0,0 24.14,43.203 25.08,48.703 0,0 -48.79,-78.863 -99.97,-96.531 0,0 -78.43,-3.89 9.01,73.02 0,0 41.8,56.699 66.93,93.429 0,0 46.6,74.192 140.86,95.75 0,0 42.09,76.591 50.9,100.151 l 154.53,-64.8 c 0,0 -60.14,-97.581 -56.4,-141.589" /><path
         id="path392"
         style="fill:#c6835d;fill-opacity:1;fill-rule:nonzero;stroke:none"
         d="m 1946.04,2170.34 c 0,0 36.63,-103.34 -68.37,-181.52 0,0 240,-246.53 555,0 0,0 -120,12.04 -75,246.55 l -411.63,-65.03" /><path
         id="path394"
         style="fill:#393536;fill-opacity:1;fill-rule:nonzero;stroke:none"
         d="m 3167.67,1115.37 -217.93,569.61 c -48.44,141.93 -172.48,227.7 -302.13,280.79 -70.45,28.85 -140.98,57.54 -211.53,86.24 -236.52,-258.35 -532.93,0 -532.93,0 -43.82,-24.1 -87.44,-48.59 -131.17,-72.91 -121.74,-67.72 -265.49,-118.2 -340.95,-242.87 L 1084.31,1128.7 c 0,0 31.68,-228.329 121.23,-286.212 0,0 25.45,139.543 211.56,119.961 l -29.45,144.071 306.66,312.18 48.63,-530.001 h 817.34 l 64.05,529.731 258.34,-298.06 -115.38,-206.671 c 193.33,80 274.89,-51.699 274.89,-51.699 0,0 96.79,116.949 125.49,253.37" /><path
         id="path396"
         style="fill:#db976f;fill-opacity:1;fill-rule:nonzero;stroke:none"
         d="m 2511.24,2556.89 c -0.47,305.54 -167.56,471.81 -373.59,471.81 -206.02,0 -373.11,-166.27 -373.58,-471.81 -11.79,-0.18 -73.47,-4.36 -38.4,-74.52 0,0 37.62,-45.84 40.32,-104.59 0,0 13.34,-31.61 33.1,-17.15 46.02,-123.43 130.69,-217.64 212.83,-276.61 0,0 139.42,-91.42 242.84,-10.14 98.75,60.84 184.1,151.93 226.99,283.79 16.68,-5.64 27.58,20.11 27.58,20.11 2.69,58.75 40.29,104.59 40.29,104.59 35.06,70.15 -26.56,74.34 -38.38,74.52" /><path
         id="path398"
         style="fill:#351f17;fill-opacity:1;fill-rule:nonzero;stroke:none"
         d="m 2515.17,2555.37 c -12.23,-25.98 -68.6,-61.7 -62.5,-95.36 0,-1.85 0,-1.85 0,0 -7.56,11.81 1.13,48.41 0,62.86 -2,25.04 -6.7,48.07 -12.5,72.57 -12.15,51.11 -27.15,96.92 -56.82,140.56 -34.98,51.49 -74.69,85.31 -143.18,81.87 -41.21,-2.08 -103.13,-12 -109.95,-61.76 -35.13,83.51 -185.27,82.28 -235.05,13.15 -29.18,-40.51 -41.14,-85.97 -48.01,-134.45 -4.14,-29.18 -5.82,-58.82 -11.45,-87.5 -3.4,-17.25 -6.01,-52.84 -15.54,-64.44 0,0 -9.67,50.53 -56.1,74.02 -45.78,23.15 -4.39,248.4 5.45,281.87 47.19,160.79 187.77,254.68 348.99,271.75 81.01,8.57 161.17,29.83 244,23.86 -18.01,-13.07 -36.62,-30.71 -52.09,-48.37 47.07,7.56 91.62,22.36 141.84,18.63 -26.61,-19.51 -14.36,-49.31 -27.7,-78.51 58.32,3.54 101.52,-68.63 131.6,-110.13 -27.93,7.4 -54.29,21.77 -82.01,29.73 122.77,-35.27 77.93,-311.87 41.02,-390.35" /><path
         id="path400"
         style="fill:#e9e9e9;fill-opacity:1;fill-rule:nonzero;stroke:none"
         d="m 1903.15,2052.01 -94.8,-52.65 c 0,0 168.14,-153.18 341.21,-154.02 1.88,-0.01 3.73,0 5.61,0.03 175,2.5 296.42,52.34 361.95,173.67 l -81.04,32.97 c 0,0 -132.93,-117.95 -246.91,-114.8 0,0 -121.5,-6.02 -286.02,114.8" /><path
         id="path402"
         style="fill:#231f20;fill-opacity:1;fill-rule:nonzero;stroke:none"
         d="m 2822.26,633.461 c 0,-32.793 -26.61,-59.359 -59.38,-59.359 H 1508.21 c -32.79,0 -59.35,26.566 -59.35,59.359 v 915.109 c 0,32.79 26.56,59.38 59.35,59.38 h 1254.67 c 32.77,0 59.38,-26.59 59.38,-59.38 V 633.461" /><path
         id="path404"
         style="fill:#7b7979;fill-opacity:1;fill-rule:nonzero;stroke:none"
         d="m 1465.17,1535.98 v -511.92 c 0,-233.111 25.91,-422.08 57.91,-422.08 h 1223.94 c 31.99,0 57.91,188.969 57.91,422.08 v 511.92 H 1465.17" /><path
         id="path406"
         style="fill:#7b7979;fill-opacity:1;fill-rule:nonzero;stroke:none"
         d="m 1844.15,544.719 h -189.69 v 44.75 h 189.69 v -44.75" /><path
         id="path408"
         style="fill:#7b7979;fill-opacity:1;fill-rule:nonzero;stroke:none"
         d="m 2582.98,544.719 h -189.67 v 44.75 h 189.67 v -44.75" /><path
         id="path410"
         style="fill:#231f20;fill-opacity:1;fill-rule:nonzero;stroke:none"
         d="m 1309.27,526.648 h 1656.76 c 0,0 -22.86,-72.519 -64.28,-100.136 h -1442.5 c 0,0 -135.51,13.816 -149.98,100.136" /><path
         id="path412"
         style="fill:#231f20;fill-opacity:1;fill-rule:nonzero;stroke:none"
         d="m 2449.05,2445.32 c -19.82,-54.93 -51.38,-83.05 -124.82,-83.05 -73.44,0 -110.72,18.7 -124.83,83.05 -14.66,67.06 44.24,99.19 117.48,104.58 132.99,9.79 154.54,-42.63 132.17,-104.58 z m -350.7,4.3 c -14.1,-64.35 -51.39,-83.05 -124.82,-83.05 -73.44,0 -104.99,28.13 -124.83,83.05 -22.36,61.96 -0.8,114.37 132.17,104.58 73.24,-5.38 132.15,-37.52 117.48,-104.58 z m 221.68,130.86 c -20.51,-1.61 -40.06,-5.07 -57.83,-10.49 -4.65,-1.42 -9.2,-2.98 -13.62,-4.69 -85.41,-27.57 -153.2,-12.78 -185.72,-1.66 -6.62,3.23 -13.61,6.1 -20.98,8.61 l -0.03,0.02 0.02,-0.01 c -19.4,6.59 -41.2,10.73 -64.15,12.51 -160.66,12.55 -186.69,-54.64 -159.66,-134.04 23.96,-70.41 62.05,-106.46 150.8,-106.46 88.73,0 133.79,23.97 150.8,106.46 2.83,13.66 3.38,26.18 1.99,37.62 21.37,18.91 42.7,9.76 55.22,0.76 -2.25,-12.79 -2.02,-26.99 1.23,-42.69 17.01,-82.48 62.07,-106.45 150.8,-106.45 88.71,0 126.83,36.05 150.78,106.45 27.05,79.41 0.99,146.6 -159.65,134.06" /><path
         id="path414"
         style="fill:#231f20;fill-opacity:1;fill-rule:nonzero;stroke:none"
         d="m 1836.47,2470.99 -38.88,-10.01 -14.98,100.57 h 62.01 l -8.15,-90.56" /><path
         id="path416"
         style="fill:#231f20;fill-opacity:1;fill-rule:nonzero;stroke:none"
         d="m 2462.65,2470.99 38.88,-10.01 14.94,100.57 h -61.99 l 8.17,-90.56" /></g></g></svg>